<svg width="290" height="98" viewBox="0 0 290 98" fill="none" xmlns="http://www.w3.org/2000/svg">
<path d="M35.28 14.98L27.864 40H23.22L17.964 21.064L12.384 40L7.776 40.036L0.684 14.98H5.04L10.224 35.356L15.84 14.98H20.448L25.668 35.248L30.888 14.98H35.28ZM57.0248 29.596C57.0248 30.34 56.9768 31.012 56.8808 31.612H41.7248C41.8448 33.196 42.4328 34.468 43.4888 35.428C44.5448 36.388 45.8408 36.868 47.3768 36.868C49.5848 36.868 51.1448 35.944 52.0568 34.096H56.4848C55.8848 35.92 54.7928 37.42 53.2088 38.596C51.6488 39.748 49.7048 40.324 47.3768 40.324C45.4808 40.324 43.7768 39.904 42.2648 39.064C40.7768 38.2 39.6008 37 38.7368 35.464C37.8968 33.904 37.4768 32.104 37.4768 30.064C37.4768 28.024 37.8848 26.236 38.7008 24.7C39.5408 23.14 40.7048 21.94 42.1928 21.1C43.7048 20.26 45.4328 19.84 47.3768 19.84C49.2488 19.84 50.9168 20.248 52.3808 21.064C53.8448 21.88 54.9848 23.032 55.8008 24.52C56.6168 25.984 57.0248 27.676 57.0248 29.596ZM52.7408 28.3C52.7168 26.788 52.1768 25.576 51.1208 24.664C50.0648 23.752 48.7568 23.296 47.1968 23.296C45.7808 23.296 44.5688 23.752 43.5608 24.664C42.5528 25.552 41.9528 26.764 41.7608 28.3H52.7408ZM65.3476 13.36V40H61.2436V13.36H65.3476ZM69.5478 30.064C69.5478 28.024 69.9558 26.236 70.7718 24.7C71.6118 23.14 72.7638 21.94 74.2278 21.1C75.6918 20.26 77.3718 19.84 79.2678 19.84C81.6678 19.84 83.6478 20.416 85.2078 21.568C86.7918 22.696 87.8598 24.316 88.4118 26.428H83.9838C83.6238 25.444 83.0478 24.676 82.2558 24.124C81.4638 23.572 80.4678 23.296 79.2678 23.296C77.5878 23.296 76.2438 23.896 75.2358 25.096C74.2518 26.272 73.7598 27.928 73.7598 30.064C73.7598 32.2 74.2518 33.868 75.2358 35.068C76.2438 36.268 77.5878 36.868 79.2678 36.868C81.6438 36.868 83.2158 35.824 83.9838 33.736H88.4118C87.8358 35.752 86.7558 37.36 85.1718 38.56C83.5878 39.736 81.6198 40.324 79.2678 40.324C77.3718 40.324 75.6918 39.904 74.2278 39.064C72.7638 38.2 71.6118 37 70.7718 35.464C69.9558 33.904 69.5478 32.104 69.5478 30.064ZM101.286 40.324C99.4137 40.324 97.7217 39.904 96.2097 39.064C94.6977 38.2 93.5097 37 92.6457 35.464C91.7817 33.904 91.3497 32.104 91.3497 30.064C91.3497 28.048 91.7937 26.26 92.6817 24.7C93.5697 23.14 94.7817 21.94 96.3177 21.1C97.8537 20.26 99.5697 19.84 101.466 19.84C103.362 19.84 105.078 20.26 106.614 21.1C108.15 21.94 109.362 23.14 110.25 24.7C111.138 26.26 111.582 28.048 111.582 30.064C111.582 32.08 111.126 33.868 110.214 35.428C109.302 36.988 108.054 38.2 106.47 39.064C104.91 39.904 103.182 40.324 101.286 40.324ZM101.286 36.76C102.342 36.76 103.326 36.508 104.238 36.004C105.174 35.5 105.93 34.744 106.506 33.736C107.082 32.728 107.37 31.504 107.37 30.064C107.37 28.624 107.094 27.412 106.542 26.428C105.99 25.42 105.258 24.664 104.346 24.16C103.434 23.656 102.45 23.404 101.394 23.404C100.338 23.404 99.3537 23.656 98.4417 24.16C97.5537 24.664 96.8457 25.42 96.3177 26.428C95.7897 27.412 95.5257 28.624 95.5257 30.064C95.5257 32.2 96.0657 33.856 97.1457 35.032C98.2497 36.184 99.6297 36.76 101.286 36.76ZM139.831 19.84C141.391 19.84 142.783 20.164 144.007 20.812C145.255 21.46 146.227 22.42 146.923 23.692C147.643 24.964 148.003 26.5 148.003 28.3V40H143.935V28.912C143.935 27.136 143.491 25.78 142.603 24.844C141.715 23.884 140.503 23.404 138.967 23.404C137.431 23.404 136.207 23.884 135.295 24.844C134.407 25.78 133.963 27.136 133.963 28.912V40H129.895V28.912C129.895 27.136 129.451 25.78 128.563 24.844C127.675 23.884 126.463 23.404 124.927 23.404C123.391 23.404 122.167 23.884 121.255 24.844C120.367 25.78 119.923 27.136 119.923 28.912V40H115.819V20.164H119.923V22.432C120.595 21.616 121.447 20.98 122.479 20.524C123.511 20.068 124.615 19.84 125.791 19.84C127.375 19.84 128.791 20.176 130.039 20.848C131.287 21.52 132.247 22.492 132.919 23.764C133.519 22.564 134.455 21.616 135.727 20.92C136.999 20.2 138.367 19.84 139.831 19.84ZM171.585 29.596C171.585 30.34 171.537 31.012 171.441 31.612H156.285C156.405 33.196 156.993 34.468 158.049 35.428C159.105 36.388 160.401 36.868 161.937 36.868C164.145 36.868 165.705 35.944 166.617 34.096H171.045C170.445 35.92 169.353 37.42 167.769 38.596C166.209 39.748 164.265 40.324 161.937 40.324C160.041 40.324 158.337 39.904 156.825 39.064C155.337 38.2 154.161 37 153.297 35.464C152.457 33.904 152.037 32.104 152.037 30.064C152.037 28.024 152.445 26.236 153.261 24.7C154.101 23.14 155.265 21.94 156.753 21.1C158.265 20.26 159.993 19.84 161.937 19.84C163.809 19.84 165.477 20.248 166.941 21.064C168.405 21.88 169.545 23.032 170.361 24.52C171.177 25.984 171.585 27.676 171.585 29.596ZM167.301 28.3C167.277 26.788 166.737 25.576 165.681 24.664C164.625 23.752 163.317 23.296 161.757 23.296C160.341 23.296 159.129 23.752 158.121 24.664C157.113 25.552 156.513 26.764 156.321 28.3H167.301ZM190.123 23.512V34.492C190.123 35.236 190.291 35.776 190.627 36.112C190.987 36.424 191.587 36.58 192.427 36.58H194.947V40H191.707C189.859 40 188.443 39.568 187.459 38.704C186.475 37.84 185.983 36.436 185.983 34.492V23.512H183.643V20.164H185.983V15.232H190.123V20.164H194.947V23.512H190.123ZM207.514 40.324C205.642 40.324 203.95 39.904 202.438 39.064C200.926 38.2 199.738 37 198.874 35.464C198.01 33.904 197.578 32.104 197.578 30.064C197.578 28.048 198.022 26.26 198.91 24.7C199.798 23.14 201.01 21.94 202.546 21.1C204.082 20.26 205.798 19.84 207.694 19.84C209.59 19.84 211.306 20.26 212.842 21.1C214.378 21.94 215.59 23.14 216.478 24.7C217.366 26.26 217.81 28.048 217.81 30.064C217.81 32.08 217.354 33.868 216.442 35.428C215.53 36.988 214.282 38.2 212.698 39.064C211.138 39.904 209.41 40.324 207.514 40.324ZM207.514 36.76C208.57 36.76 209.554 36.508 210.466 36.004C211.402 35.5 212.158 34.744 212.734 33.736C213.31 32.728 213.598 31.504 213.598 30.064C213.598 28.624 213.322 27.412 212.77 26.428C212.218 25.42 211.486 24.664 210.574 24.16C209.662 23.656 208.678 23.404 207.622 23.404C206.566 23.404 205.582 23.656 204.67 24.16C203.782 24.664 203.074 25.42 202.546 26.428C202.018 27.412 201.754 28.624 201.754 30.064C201.754 32.2 202.294 33.856 203.374 35.032C204.478 36.184 205.858 36.76 207.514 36.76ZM240.182 40.324C238.31 40.324 236.618 39.904 235.106 39.064C233.594 38.2 232.406 37 231.542 35.464C230.678 33.904 230.246 32.104 230.246 30.064C230.246 28.048 230.69 26.26 231.578 24.7C232.466 23.14 233.678 21.94 235.214 21.1C236.75 20.26 238.466 19.84 240.362 19.84C242.258 19.84 243.974 20.26 245.51 21.1C247.046 21.94 248.258 23.14 249.146 24.7C250.034 26.26 250.478 28.048 250.478 30.064C250.478 32.08 250.022 33.868 249.11 35.428C248.198 36.988 246.95 38.2 245.366 39.064C243.806 39.904 242.078 40.324 240.182 40.324ZM240.182 36.76C241.238 36.76 242.222 36.508 243.134 36.004C244.07 35.5 244.826 34.744 245.402 33.736C245.978 32.728 246.266 31.504 246.266 30.064C246.266 28.624 245.99 27.412 245.438 26.428C244.886 25.42 244.154 24.664 243.242 24.16C242.33 23.656 241.346 23.404 240.29 23.404C239.234 23.404 238.25 23.656 237.338 24.16C236.45 24.664 235.742 25.42 235.214 26.428C234.686 27.412 234.422 28.624 234.422 30.064C234.422 32.2 234.962 33.856 236.042 35.032C237.146 36.184 238.526 36.76 240.182 36.76ZM272.679 20.164V40H268.575V37.66C267.927 38.476 267.075 39.124 266.019 39.604C264.987 40.06 263.883 40.288 262.707 40.288C261.147 40.288 259.743 39.964 258.495 39.316C257.271 38.668 256.299 37.708 255.579 36.436C254.883 35.164 254.535 33.628 254.535 31.828V20.164H258.603V31.216C258.603 32.992 259.047 34.36 259.935 35.32C260.823 36.256 262.035 36.724 263.571 36.724C265.107 36.724 266.319 36.256 267.207 35.32C268.119 34.36 268.575 32.992 268.575 31.216V20.164H272.679ZM282.378 23.044C282.978 22.036 283.77 21.256 284.754 20.704C285.762 20.128 286.95 19.84 288.318 19.84V24.088H287.274C285.666 24.088 284.442 24.496 283.602 25.312C282.786 26.128 282.378 27.544 282.378 29.56V40H278.274V20.164H282.378V23.044Z" fill="#270036"/>
<path d="M35.7973 79.9101C36.1179 81.8679 36.8665 83.6457 38.0427 85.2432C39.286 86.8682 40.7829 88.1338 42.5342 89.0392C44.3793 89.9983 46.2773 90.4772 48.2294 90.4772C50.4749 90.4772 52.5872 89.8915 54.5659 88.7196C55.5949 88.1068 56.4805 87.4279 57.2228 86.6819C57.9647 85.9362 58.5827 85.1106 59.0775 84.2051V90.3973C55.8825 93.1111 52.2663 94.4677 48.2294 94.4677C47.2268 94.4677 46.254 94.3877 45.3117 94.227C44.3694 94.0666 43.4633 93.8226 42.5945 93.4952C41.7252 93.1679 40.8565 92.7433 39.9877 92.2222C38.7448 91.4868 37.6215 90.6248 36.6191 89.6353C35.6165 88.6458 34.7276 87.483 33.9522 86.146C32.4682 83.6065 31.7263 80.8526 31.7263 77.8847C31.7263 74.944 32.4682 72.1767 33.9522 69.5831C34.6742 68.3271 35.5429 67.1906 36.5592 66.1743C37.5746 65.1587 38.7178 64.2695 39.9877 63.5076C42.4745 62.0372 45.2215 61.3016 48.2294 61.3016C50.2342 61.3016 52.1923 61.6694 54.1045 62.4043C56.0161 63.2118 57.6737 64.2279 59.0775 65.452V71.5766C58.2887 70.2555 57.3595 69.135 56.2903 68.2143C55.1802 67.3199 53.9306 66.6067 52.5405 66.0727C51.1633 65.5524 49.7263 65.2923 48.2294 65.2923C45.1278 65.2923 42.4072 66.306 40.0681 68.3345C38.8651 69.3884 37.9125 70.5323 37.2108 71.767C36.5087 73.001 36.0374 74.3719 35.7973 75.8794H48.2294V79.9101H35.7973Z" fill="#13102B"/>
<path d="M48.2294 61.603C45.2906 61.603 42.5693 62.331 40.1411 63.7668C38.8995 64.5118 37.7656 65.3937 36.7723 66.3873C35.78 67.3796 34.9191 68.5054 34.2139 69.7331C32.7634 72.2676 32.0278 75.0102 32.0278 77.8843C32.0278 80.7845 32.7629 83.513 34.2127 85.9936C34.9708 87.3016 35.8516 88.4544 36.8308 89.4206C37.8097 90.3866 38.9237 91.2418 40.1411 91.9623C40.9941 92.4738 41.8548 92.8946 42.7008 93.213C43.5485 93.5323 44.4441 93.7732 45.3622 93.9291C46.2808 94.0864 47.2454 94.1659 48.2294 94.1659C52.1293 94.1659 55.677 92.8507 58.776 90.2568V85.2743C58.3837 85.8504 57.9354 86.3928 57.4366 86.894C56.6804 87.6538 55.7666 88.3552 54.7201 88.9783C52.7028 90.173 50.5192 90.7786 48.2294 90.7786C46.2373 90.7786 44.2743 90.2834 42.3952 89.3066C40.6139 88.3854 39.0688 87.0801 37.8035 85.4263C36.6004 83.7927 35.8267 81.954 35.4996 79.9586L35.4423 79.6082H47.9279V76.1805H35.4438L35.4996 75.8318C35.7443 74.2954 36.2319 72.8775 36.9488 71.6175C37.6631 70.3603 38.6459 69.1795 39.8694 68.1076C42.2549 66.0389 45.0675 64.9905 48.2294 64.9905C49.7553 64.9905 51.2416 65.2596 52.6471 65.7903C54.0623 66.3339 55.3511 67.0702 56.4795 67.9793C57.3313 68.7127 58.0999 69.5739 58.776 70.5504V65.5896C57.4239 64.4313 55.8138 63.4533 53.9871 62.6818C52.1276 61.9672 50.1873 61.603 48.2294 61.603ZM48.2294 94.7689C47.2114 94.7689 46.2128 94.6865 45.2609 94.5236C44.305 94.3615 43.3723 94.1103 42.4882 93.7772C41.6086 93.446 40.7152 93.0097 39.8327 92.4803C38.5741 91.7358 37.421 90.8505 36.4071 89.85C35.3899 88.8459 34.4761 87.6505 33.6916 86.297C32.1877 83.7235 31.4248 80.893 31.4248 77.8843C31.4248 74.9039 32.187 72.0605 33.6906 69.4331C34.4229 68.1589 35.3161 66.9907 36.3458 65.9608C37.3739 64.9325 38.547 64.0202 39.8325 63.2488C42.3567 61.7562 45.1812 61 48.2294 61C50.2617 61 52.2747 61.3779 54.2127 62.1226C56.154 62.9426 57.8545 63.985 59.2757 65.2247L59.3792 65.3147V72.6694L58.8188 71.731C58.0506 70.4446 57.1337 69.3382 56.0935 68.4426C55.0216 67.5791 53.7874 66.8744 52.4325 66.3538C51.0967 65.8494 49.682 65.5934 48.2294 65.5934C45.2166 65.5934 42.5373 66.5923 40.2657 68.5619C39.0942 69.5885 38.1541 70.7171 37.473 71.9156C36.8463 73.0169 36.4038 74.2473 36.1555 75.5775H48.5309V80.2112H36.1571C36.4986 81.9773 37.2137 83.6085 38.2855 85.0647C39.4932 86.6423 40.9704 87.8907 42.6728 88.7712C44.4657 89.7034 46.335 90.1754 48.2294 90.1754C50.4095 90.1754 52.49 89.5981 54.4122 88.4599C55.4146 87.8629 56.2884 87.1926 57.0092 86.4689C57.7273 85.747 58.3339 84.9364 58.8131 84.0602L59.3792 83.0245V90.5365L59.2729 90.6266C56.0365 93.3754 52.3209 94.7689 48.2294 94.7689Z" fill="#13102B"/>
<path d="M63.3884 67.1566L63.5687 66.2948L72.3921 63.2667L73.575 63.9286L66.2756 89.0937L66.717 89.4148C67.3719 89.1739 68.2642 88.6023 69.394 87.7002C70.5235 86.7982 71.6026 85.8252 72.6323 84.7826L73.5348 85.6851C72.893 86.5005 72.1244 87.3961 71.2285 88.3719C70.4397 89.2412 69.5209 90.1301 68.4718 91.0391C67.4219 91.9481 66.3824 92.6598 65.3534 93.1742C64.3237 93.689 63.3012 93.9465 62.2859 93.9465C61.6704 93.9465 61.1826 93.7724 60.8218 93.4254C60.4609 93.0777 60.2803 92.6364 60.2803 92.1014C60.2803 91.4201 60.3742 90.7316 60.5607 90.0362L65.8551 71.3878C66.0821 70.7328 66.1959 70.2048 66.1959 69.8037C66.1959 69.4165 65.8946 68.9883 65.2931 68.5201L63.3884 67.1566Z" fill="#13102B"/>
<path d="M79.9906 79.9099C80.3113 81.8678 81.0598 83.646 82.2366 85.2435C83.4794 86.8685 84.9768 88.1336 86.7283 89.0391C88.5731 89.9981 90.4711 90.4775 92.4228 90.4775C94.669 90.4775 96.7808 89.8918 98.7593 88.7194C99.7885 88.1068 100.674 87.4282 101.416 86.6822C102.158 85.9365 102.776 85.1109 103.271 84.205V90.3976C100.076 93.1114 96.4597 94.468 92.4228 94.468C91.4201 94.468 90.4479 94.3876 89.5051 94.2274C88.5628 94.0669 87.6574 93.8229 86.7884 93.4951C85.9191 93.1677 85.0503 92.7431 84.1815 92.2221C82.9382 91.4871 81.8156 90.6246 80.8129 89.6351C79.8103 88.6463 78.9209 87.4835 78.1455 86.1463C76.662 83.6068 75.9202 80.8529 75.9202 77.885C75.9202 74.9443 76.662 72.177 78.1455 69.5834C78.868 68.3269 79.7365 67.1904 80.7526 66.1746C81.7684 65.1585 82.9112 64.2694 84.1815 63.5074C86.6679 62.0371 89.4148 61.3019 92.4228 61.3019C94.4281 61.3019 96.3864 61.6697 98.2978 62.4046C100.21 63.2121 101.867 64.2277 103.271 65.4523V71.5765C102.482 70.2558 101.553 69.1349 100.484 68.2141C99.374 67.3204 98.1245 66.6066 96.7339 66.0726C95.3572 65.5522 93.9197 65.2921 92.4228 65.2921C89.3212 65.2921 86.6006 66.3063 84.2615 68.3343C83.0584 69.3882 82.1061 70.5326 81.4042 71.7668C80.7026 73.0013 80.2313 74.3722 79.9906 75.8797H92.4228V79.9099H79.9906Z" fill="#13102B"/>
<path d="M92.4227 61.6037C89.4835 61.6037 86.7622 62.3314 84.335 63.7671C83.0943 64.5113 81.9604 65.3933 80.9657 66.388C79.9738 67.3799 79.1129 68.5056 78.407 69.7341C76.957 72.2688 76.2216 75.0114 76.2216 77.8853C76.2216 80.7852 76.9566 83.5135 78.4058 85.9943C79.1642 87.3021 80.0452 88.4549 81.0244 89.4209C82.0059 90.3893 83.1197 91.2442 84.335 91.9623C85.188 92.4741 86.0484 92.8946 86.8947 93.2133C87.7433 93.5332 88.6387 93.7744 89.5558 93.93C90.478 94.0871 91.4424 94.1666 92.4227 94.1666C96.3227 94.1666 99.8706 92.8515 102.969 90.2576V85.2752C102.577 85.8509 102.129 86.3935 101.63 86.895C100.874 87.6546 99.9604 88.3557 98.9135 88.9786C96.8972 90.1735 94.7132 90.7791 92.4227 90.7791C90.4313 90.7791 88.4684 90.2839 86.5891 89.3071C84.806 88.3849 83.261 87.0794 81.9971 85.4268C80.794 83.7934 80.02 81.955 79.6932 79.9588L79.6357 79.6085H92.121V76.1812H79.6371L79.6929 75.8323C79.9381 74.2962 80.4257 72.8785 81.1419 71.618C81.8582 70.3593 82.8407 69.178 84.0627 68.1079C86.449 66.0389 89.2615 64.9907 92.4227 64.9907C93.9489 64.9907 95.4352 65.2599 96.8404 65.7905C98.2552 66.3339 99.544 67.0703 100.672 67.9795C101.524 68.7128 102.293 69.5739 102.969 70.5509V65.5901C101.618 64.4323 100.008 63.4545 98.1807 62.6825C96.321 61.9679 94.3809 61.6037 92.4227 61.6037ZM92.4227 94.7698C91.4088 94.7698 90.4103 94.6872 89.4543 94.5246C88.4998 94.3623 87.5668 94.1111 86.682 93.7775C85.8022 93.4461 84.9085 93.0095 84.0263 92.4805C82.7703 91.7384 81.6175 90.8531 80.601 89.8502C79.5835 88.8466 78.6695 87.651 77.8847 86.298C76.3811 83.724 75.6187 80.8935 75.6187 77.8853C75.6187 74.9049 76.3809 72.0615 77.8838 69.434C78.6165 68.1591 79.5097 66.991 80.5392 65.9615C81.5687 64.9321 82.7421 64.0192 84.0263 63.2491C86.5493 61.7567 89.3739 61.0007 92.4227 61.0007C94.4551 61.0007 96.4683 61.3786 98.4058 62.1234C100.348 62.9435 102.049 63.9862 103.469 65.2254L103.573 65.3154V72.6695L103.012 71.7312C102.244 70.4443 101.327 69.338 100.287 68.4429C99.2147 67.5794 97.9805 66.8744 96.6259 66.354C95.2908 65.8497 93.8758 65.5937 92.4227 65.5937C89.4107 65.5937 86.7311 66.5925 84.459 68.5621C83.289 69.5873 82.3489 70.7159 81.6661 71.9159C81.0402 73.0176 80.5976 74.2483 80.3488 75.5783H92.7242V80.2115H80.3508C80.692 81.978 81.4073 83.6093 82.4794 85.0652C83.6853 86.6419 85.1626 87.8904 86.8666 88.7714C88.6598 89.7037 90.529 90.1759 92.4227 90.1759C94.6036 90.1759 96.6838 89.5986 98.6055 88.4601C99.6089 87.8634 100.482 87.1936 101.203 86.4699C101.921 85.7472 102.528 84.9369 103.006 84.0604L103.573 83.0238V90.5373L103.466 90.6273C100.23 93.3764 96.5143 94.7698 92.4227 94.7698Z" fill="#13102B"/>
<path d="M110.891 62.4847V86.3868C114.38 84.3412 117.254 81.2464 119.513 77.1027C120.248 75.7257 120.873 74.2619 121.388 72.7111C121.902 71.1603 122.287 69.5463 122.541 67.8686C122.795 66.1909 122.922 64.3963 122.922 62.4847H126.892C126.892 63.835 126.832 65.1583 126.712 66.4545C126.591 67.7515 126.408 69.0183 126.16 70.2549C125.913 71.4912 125.609 72.6376 125.248 73.6936C124.165 77.0492 122.675 80.0368 120.777 82.6566C118.932 85.1435 116.813 87.2888 114.42 89.0937C113.27 89.9491 112.057 90.7312 110.781 91.4398C109.504 92.1486 108.197 92.7628 106.86 93.2846V62.4847H110.891Z" fill="#13102B"/>
<path d="M107.162 62.7866V92.8401C108.343 92.3602 109.509 91.8013 110.634 91.1765C111.894 90.4771 113.107 89.6952 114.24 88.8523C116.597 87.0738 118.716 84.9286 120.535 82.4774C122.404 79.8974 123.894 76.9101 124.961 73.6016C125.318 72.5578 125.621 71.4136 125.865 70.1959C126.109 68.9742 126.293 67.7059 126.412 66.4272C126.522 65.2409 126.582 64.0177 126.59 62.7866H123.223C123.21 64.5914 123.081 66.3149 122.84 67.914C122.585 69.5963 122.193 71.2424 121.674 72.8063C121.156 74.3662 120.519 75.8595 119.779 77.2451C117.502 81.4209 114.564 84.5833 111.043 86.647L110.589 86.9131V62.7866H107.162ZM106.559 93.7264V62.1836H111.192V85.8525C114.417 83.8429 117.125 80.8536 119.249 76.9589C119.971 75.6057 120.595 74.144 121.102 72.6167C121.61 71.0848 121.994 69.4725 122.243 67.824C122.494 66.1657 122.621 64.3695 122.621 62.4851V62.1836H127.194V62.4851C127.194 63.8362 127.133 65.1812 127.013 66.483C126.892 67.7826 126.704 69.0716 126.456 70.3142C126.207 71.5578 125.897 72.7278 125.534 73.7915C124.448 77.1558 122.929 80.1996 121.021 82.8338C119.166 85.3343 117.007 87.5206 114.601 89.3348C113.445 90.195 112.21 90.9917 110.927 91.7034C109.648 92.4139 108.316 93.0403 106.97 93.5659L106.559 93.7264Z" fill="#13102B"/>
<path d="M132.487 79.9099C132.808 81.8678 133.556 83.646 134.732 85.2435C135.976 86.8685 137.473 88.1336 139.224 89.0391C141.069 89.9981 142.967 90.4775 144.919 90.4775C147.165 90.4775 149.277 89.8918 151.256 88.7194C152.285 88.1068 153.17 87.4282 153.913 86.6822C154.654 85.9365 155.272 85.1109 155.767 84.205V90.3976C152.572 93.1114 148.956 94.468 144.919 94.468C143.917 94.468 142.944 94.3876 142.001 94.2274C141.059 94.0669 140.153 93.8229 139.285 93.4951C138.415 93.1677 137.546 92.7431 136.677 92.2221C135.435 91.4871 134.311 90.6246 133.309 89.6351C132.306 88.6463 131.417 87.4835 130.642 86.1463C129.158 83.6068 128.416 80.8529 128.416 77.885C128.416 74.9443 129.158 72.177 130.642 69.5834C131.364 68.3269 132.233 67.1904 133.249 66.1746C134.264 65.1585 135.408 64.2694 136.677 63.5074C139.164 62.0371 141.911 61.3019 144.919 61.3019C146.924 61.3019 148.882 61.6697 150.794 62.4046C152.706 63.2121 154.363 64.2277 155.767 65.4523V71.5765C154.978 70.2558 154.049 69.1349 152.98 68.2141C151.87 67.3204 150.62 66.6066 149.23 66.0726C147.853 65.5522 146.416 65.2921 144.919 65.2921C141.818 65.2921 139.097 66.3063 136.758 68.3343C135.555 69.3882 134.602 70.5326 133.9 71.7668C133.198 73.0013 132.727 74.3722 132.487 75.8797H144.919V79.9099H132.487Z" fill="#13102B"/>
<path d="M144.919 61.6037C141.98 61.6037 139.259 62.3314 136.831 63.7671C135.589 64.5123 134.455 65.3945 133.462 66.388C132.47 67.3799 131.609 68.5056 130.904 69.7338C129.453 72.2684 128.718 75.011 128.718 77.8853C128.718 80.7857 129.453 83.5137 130.903 85.9943C131.661 87.3028 132.542 88.4556 133.52 89.4209C134.501 90.3883 135.615 91.2432 136.831 91.9626C137.684 92.4741 138.544 92.8946 139.391 93.2133C140.239 93.533 141.134 93.7741 142.052 93.93C142.974 94.0871 143.939 94.1666 144.919 94.1666C148.819 94.1666 152.367 92.8515 155.466 90.2576V85.2747C155.074 85.8514 154.625 86.3935 154.126 86.895C153.369 87.6555 152.456 88.3567 151.41 88.9786C149.393 90.1735 147.209 90.7791 144.919 90.7791C142.928 90.7791 140.964 90.2839 139.085 89.3071C137.303 88.3852 135.758 87.0796 134.493 85.4268C133.291 83.7932 132.517 81.9548 132.189 79.9588L132.132 79.6085H144.618V76.1812H132.134L132.189 75.8323C132.434 74.2959 132.922 72.878 133.639 71.6177C134.354 70.3598 135.337 69.1788 136.559 68.1076C138.946 66.0389 141.758 64.9907 144.919 64.9907C146.445 64.9907 147.931 65.2599 149.337 65.7905C150.751 66.3339 152.04 67.0703 153.169 67.9795C154.021 68.7123 154.789 69.5736 155.466 70.5511V65.5904C154.115 64.4323 152.504 63.4543 150.677 62.6825C148.817 61.9679 146.877 61.6037 144.919 61.6037ZM144.919 94.7698C143.905 94.7698 142.907 94.6872 141.951 94.5246C140.995 94.3623 140.062 94.1108 139.178 93.7775C138.298 93.4461 137.405 93.0095 136.523 92.4805C135.266 91.7375 134.113 90.8522 133.097 89.8502C132.08 88.8471 131.166 87.6517 130.381 86.298C128.878 83.7247 128.115 80.8942 128.115 77.8853C128.115 74.9046 128.877 72.0612 130.381 69.434C131.113 68.1591 132.006 66.991 133.036 65.9615C134.063 64.9333 135.236 64.0206 136.523 63.2491C139.046 61.7567 141.871 61.0007 144.919 61.0007C146.951 61.0007 148.964 61.3786 150.902 62.1234C152.845 62.9435 154.545 63.9859 155.966 65.2254L156.069 65.3154V72.669L155.509 71.7312C154.74 70.4441 153.823 69.3375 152.784 68.4429C151.711 67.5791 150.476 66.8741 149.122 66.354C147.787 65.8497 146.372 65.5937 144.919 65.5937C141.907 65.5937 139.227 66.5925 136.956 68.5621C135.785 69.588 134.845 70.7166 134.163 71.9159C133.536 73.0174 133.094 74.2478 132.845 75.5783H145.221V80.2115H132.847C133.189 81.9778 133.904 83.609 134.976 85.0652C136.182 86.6421 137.66 87.8907 139.363 88.7714C141.156 89.7037 143.025 90.1759 144.919 90.1759C147.1 90.1759 149.18 89.5986 151.102 88.4601C152.104 87.8643 152.978 87.1943 153.699 86.4699C154.417 85.7482 155.024 84.9376 155.503 84.0604L156.069 83.0245V90.5373L155.963 90.6278C152.727 93.3764 149.011 94.7698 144.919 94.7698Z" fill="#13102B"/>
<path d="M163.909 80.231C165.78 80.0708 167.411 79.3423 168.801 78.0454C170.138 76.8021 170.806 75.2851 170.806 73.4936C170.806 72.264 170.479 71.1406 169.824 70.1248C169.155 69.1492 168.253 68.3401 167.116 67.6985C166.007 67.0967 164.763 66.7962 163.387 66.7962V93.2851H159.357V62.4851C160.934 62.4851 162.277 62.5385 163.387 62.6453C165.392 62.7655 167.29 63.3136 169.082 64.2895C170.806 65.2253 172.19 66.5153 173.232 68.1597C174.248 69.791 174.757 71.5688 174.757 73.4936C174.757 75.4455 174.235 77.2365 173.193 78.8677C172.11 80.5517 170.699 81.8553 168.962 82.7777C169.991 84.6226 171.154 86.1935 172.45 87.4897C173.814 88.8935 175.171 89.8961 176.521 90.4977V94.468C174.222 93.6924 172.25 92.5896 170.606 91.1591C168.934 89.729 167.578 88.1114 166.535 86.3068C165.452 84.3951 164.577 82.3699 163.909 80.231Z" fill="#13102B"/>
<path d="M163.688 67.1026V79.9471L163.883 79.9304C165.677 79.7766 167.262 79.0681 168.596 77.8245C169.862 76.6458 170.505 75.1887 170.505 73.4933C170.505 72.3287 170.19 71.2502 169.57 70.2878C168.935 69.3618 168.058 68.5763 166.968 67.9606C165.994 67.4324 164.891 67.1438 163.688 67.1026ZM164.308 80.4914C164.953 82.4735 165.789 84.378 166.797 86.1577C167.817 87.923 169.165 89.5292 170.802 90.9298C172.314 92.2454 174.134 93.2912 176.22 94.0433V90.691C174.898 90.068 173.558 89.0624 172.234 87.6999C170.927 86.3933 169.736 84.7853 168.698 82.9242L168.548 82.6553L168.82 82.5109C170.503 81.6179 171.889 80.337 172.939 78.7043C173.945 77.1305 174.455 75.3772 174.455 73.4933C174.455 71.6348 173.958 69.8939 172.976 68.3189C171.968 66.7281 170.609 65.4608 168.938 64.554C167.193 63.6038 165.32 63.0628 163.369 62.946C162.335 62.8468 161.091 62.7934 159.658 62.7872V92.983H163.085V66.4944H163.387C164.808 66.4944 166.111 66.8102 167.26 67.4331C168.435 68.0967 169.38 68.9441 170.073 69.954C170.761 71.0227 171.108 72.2109 171.108 73.4933C171.108 75.3628 170.401 76.9687 169.007 78.2658C167.665 79.5166 166.087 80.2642 164.308 80.4914ZM176.823 94.8877L176.425 94.7536C174.098 93.9681 172.073 92.8352 170.408 91.386C168.721 89.9429 167.329 88.2839 166.274 86.457C165.22 84.5973 164.352 82.6062 163.688 80.5343V93.5862H159.055V62.1833H159.357C160.936 62.1833 162.302 62.2379 163.416 62.3449C165.445 62.4663 167.403 63.0317 169.226 64.0243C170.988 64.9805 172.422 66.3174 173.487 67.998C174.53 69.6721 175.058 71.5205 175.058 73.4933C175.058 75.494 174.516 77.3566 173.447 79.0295C172.397 80.6624 171.028 81.9615 169.374 82.895C170.349 84.5954 171.455 86.0684 172.663 87.2765C173.996 88.6486 175.335 89.6383 176.644 90.2222L176.823 90.3017V94.8877Z" fill="#13102B"/>
<path d="M8.72852 73.6364L11.5724 69.3406L20.5112 75.3366L20.2059 80.2938L19.7727 80.9482L8.72852 73.6364Z" fill="#13102B"/>
<path d="M5.55566 79.827L12.4849 74.8066L11.5727 69.3405L5.55566 73.6227V79.827Z" fill="#13102B"/>
<path d="M12.5881 81.367C12.5881 81.8773 12.1743 82.2908 11.664 82.2908C11.596 82.2908 11.5296 82.2836 11.4657 82.2698C11.2892 82.231 11.1314 82.1419 11.0085 82.0186C10.8424 81.8512 10.7399 81.6213 10.7399 81.367C10.7399 80.8564 11.1537 80.4429 11.664 80.4429C11.7531 80.4429 11.8393 80.4553 11.9207 80.479C12.2246 80.5667 12.4643 80.8061 12.5519 81.1103C12.5754 81.1919 12.5881 81.2779 12.5881 81.367Z" fill="#13102B"/>
<path d="M11.664 78.6903C10.2063 78.6903 9.02026 79.8764 9.02026 81.334C9.02026 81.8398 9.16442 82.3321 9.43694 82.7581L9.44604 82.7718C9.481 82.8259 9.515 82.8747 9.54996 82.921L10.4621 84.2284L11.6601 86.0637L12.8558 84.2328L13.7651 82.9375C13.8079 82.8817 13.8496 82.8223 13.8896 82.7598L13.8977 82.7473C14.1659 82.3242 14.3077 81.8355 14.3077 81.334C14.3077 79.8764 13.1216 78.6903 11.664 78.6903ZM13.4154 82.4415L13.4085 82.4526C13.3766 82.5019 13.3431 82.5498 13.3089 82.5943L12.3857 83.9085L11.6601 85.0192L10.9353 83.9092L10.0152 82.5903L10.0088 82.5816C9.97933 82.5424 9.95155 82.5021 9.92569 82.4621L9.91778 82.4499C9.70394 82.1164 9.59115 81.7306 9.59115 81.334C9.59115 80.191 10.521 79.2612 11.664 79.2612C12.8069 79.2612 13.7366 80.191 13.7366 81.334C13.7366 81.727 13.6257 82.1101 13.4154 82.4415Z" fill="#13102B"/>
<path d="M154.061 77.7089C154.061 79.0308 152.989 80.1024 151.668 80.1024C151.491 80.1024 151.32 80.0835 151.154 80.0471C150.697 79.9472 150.289 79.7166 149.97 79.3965C149.54 78.9638 149.274 78.3675 149.274 77.7089C149.274 76.3871 150.346 75.3155 151.668 75.3155C151.898 75.3155 152.121 75.3483 152.332 75.4091C153.12 75.6364 153.74 76.2568 153.967 77.0442C154.028 77.2552 154.061 77.4783 154.061 77.7089Z" fill="#ED1C24"/>
<path d="M151.668 75.6997C150.56 75.6997 149.658 76.601 149.658 77.7091C149.658 78.2433 149.866 78.7462 150.243 79.1253C150.516 79.4004 150.86 79.5896 151.236 79.6717C151.377 79.7021 151.522 79.7179 151.668 79.7179C152.775 79.7179 153.677 78.8168 153.677 77.7091C153.677 77.5192 153.65 77.3312 153.598 77.1504C153.409 76.4935 152.883 75.9677 152.226 75.7785C152.045 75.7263 151.858 75.6997 151.668 75.6997ZM151.668 80.4866C151.468 80.4866 151.267 80.4651 151.073 80.4229C150.551 80.3087 150.076 80.0479 149.697 79.6672C149.177 79.1432 148.89 78.4478 148.89 77.7091C148.89 76.1772 150.136 74.931 151.668 74.931C151.93 74.931 152.189 74.9676 152.439 75.04C153.347 75.3017 154.075 76.029 154.337 76.9375C154.409 77.1875 154.445 77.4471 154.445 77.7091C154.445 79.2404 153.199 80.4866 151.668 80.4866Z" fill="#ED1C24"/>
<path d="M101.078 77.7089C101.078 79.0308 100.006 80.1024 98.6841 80.1024C98.5079 80.1024 98.3362 80.0835 98.1707 80.0471C97.7136 79.9472 97.305 79.7166 96.9868 79.3965C96.5565 78.9638 96.2906 78.3675 96.2906 77.7089C96.2906 76.3871 97.3623 75.3155 98.6841 75.3155C98.915 75.3155 99.1379 75.3483 99.3489 75.4091C100.136 75.6364 100.757 76.2568 100.984 77.0442C101.045 77.2552 101.078 77.4783 101.078 77.7089Z" fill="#ED1C24"/>
<path d="M98.6845 75.6997C97.5765 75.6997 96.6752 76.601 96.6752 77.7091C96.6752 78.2433 96.883 78.7462 97.2592 79.1253C97.5332 79.4004 97.8771 79.5896 98.2528 79.6717C98.3938 79.7021 98.5394 79.7179 98.6845 79.7179C99.7921 79.7179 100.693 78.8168 100.693 77.7091C100.693 77.5192 100.667 77.3312 100.615 77.1504C100.425 76.4935 99.8994 75.9677 99.2425 75.7785C99.0619 75.7263 98.8744 75.6997 98.6845 75.6997ZM98.6845 80.4866C98.4844 80.4866 98.2844 80.4651 98.0892 80.4229C97.5682 80.3087 97.0931 80.0479 96.7142 79.6672C96.1934 79.1432 95.9065 78.4478 95.9065 77.7091C95.9065 76.1772 97.1529 74.931 98.6845 74.931C98.947 74.931 99.2063 74.9676 99.4559 75.04C100.364 75.3017 101.092 76.029 101.354 76.9375C101.425 77.1875 101.462 77.4471 101.462 77.7091C101.462 79.2404 100.216 80.4866 98.6845 80.4866Z" fill="#ED1C24"/>
<path d="M56.884 77.7089C56.884 79.0308 55.8124 80.1024 54.4906 80.1024C54.3146 80.1024 54.1426 80.0835 53.9774 80.0471C53.52 79.9472 53.1117 79.7166 52.7932 79.3965C52.3632 78.9638 52.0971 78.3675 52.0971 77.7089C52.0971 76.3871 53.1687 75.3155 54.4906 75.3155C54.7214 75.3155 54.9446 75.3483 55.1556 75.4091C55.9429 75.6364 56.5634 76.2568 56.7904 77.0442C56.8515 77.2552 56.884 77.4783 56.884 77.7089Z" fill="#ED1C24"/>
<path d="M54.4908 75.6997C53.3828 75.6997 52.4816 76.601 52.4816 77.7091C52.4816 78.2433 52.6893 78.7462 53.0657 79.1253C53.3396 79.4004 53.6833 79.5896 54.0592 79.6717C54.2003 79.7021 54.3456 79.7179 54.4908 79.7179C55.5983 79.7179 56.4996 78.8168 56.4996 77.7091C56.4996 77.5192 56.4733 77.3312 56.4213 77.1504C56.2317 76.4935 55.7058 75.9677 55.049 75.7785C54.8684 75.7263 54.6807 75.6997 54.4908 75.6997ZM54.4908 80.4866C54.2908 80.4866 54.0906 80.4651 53.8955 80.4229C53.3746 80.3087 52.8993 80.0479 52.5207 79.6672C51.9996 79.1432 51.713 78.4478 51.713 77.7091C51.713 76.1772 52.9591 74.931 54.4908 74.931C54.7532 74.931 55.0126 74.9676 55.2621 75.04C56.1704 75.3017 56.8979 76.029 57.1599 76.9375C57.2319 77.1875 57.2683 77.4471 57.2683 77.7091C57.2683 79.2404 56.0222 80.4866 54.4908 80.4866Z" fill="#ED1C24"/>
<path d="M3.34878 93.3709C3.82436 92.5854 4.68453 92.0576 5.66802 92.0576C5.92425 92.0576 6.1776 92.0933 6.42138 92.1637C7.07943 92.3534 7.63931 92.7942 7.98917 93.3709H3.34878ZM8.77198 93.8721C8.46547 92.8093 7.62805 91.9717 6.5653 91.6652C6.28033 91.5828 5.97908 91.539 5.66778 91.539C3.88351 91.539 2.43713 92.9853 2.43713 94.7696C2.43713 95.6583 2.79585 96.4631 3.3768 97.0474C3.8064 97.4794 4.35766 97.7907 4.975 97.9258C5.19818 97.9746 5.42975 98 5.66778 98C7.45204 98 8.89842 96.5536 8.89842 94.7696C8.89842 94.4581 8.85436 94.157 8.77198 93.8721Z" fill="#ED1C24"/>
<path d="M12.5902 93.3431C13.0691 92.573 13.9206 92.0576 14.8924 92.0576C15.1486 92.0576 15.402 92.0933 15.6457 92.1637C16.0327 92.2753 16.3826 92.4774 16.6793 92.7392C15.3531 93.0751 13.9901 93.2763 12.5902 93.3431ZM17.9963 93.8721C17.6898 92.8093 16.8524 91.9717 15.7897 91.6652C15.5047 91.5828 15.2037 91.539 14.8921 91.539C13.1079 91.539 11.6615 92.9853 11.6615 94.7696C11.6615 95.6583 12.0202 96.4631 12.6009 97.0472C13.0308 97.4794 13.582 97.7907 14.1991 97.9258C14.4223 97.9744 14.6544 98 14.8921 98C16.6762 98 18.1228 96.5536 18.1228 94.7696C18.1228 94.458 18.0787 94.157 17.9963 93.8721Z" fill="#ED1C24"/>
<path d="M27.6828 72.6296C26.9862 70.7438 25.9021 69.0345 24.4301 67.5031C22.9584 65.9715 21.0115 64.7375 18.5898 63.8017C16.1681 62.8656 13.2478 62.3975 9.82914 62.3975H0V83.8367L5.55562 79.8151V67.1626H11.3486C12.6781 67.1626 14.0232 67.3614 15.3848 67.7584C16.7454 68.1559 18.0036 68.7867 19.1595 69.6516C20.3147 70.5171 21.2488 71.637 21.961 73.0128C22.6734 74.3887 23.0295 76.0406 23.0295 77.9692C23.0295 79.6994 22.7208 81.2238 22.1035 82.5428C21.4864 83.8618 20.6233 84.9679 19.5158 85.8614C18.4073 86.7548 17.0859 87.4356 15.5507 87.9038C14.015 88.3714 12.3139 88.6054 10.4463 88.6054H5.55562V80.1302L0 84.1554V93.3705H2.1916C2.7474 91.9943 4.09488 91.0195 5.66793 91.0195C6.02187 91.0195 6.37197 91.069 6.70913 91.1667C7.8126 91.4847 8.71419 92.314 9.14188 93.3705H11.4158C11.9717 91.9943 13.3191 91.0195 14.8922 91.0195C15.2464 91.0195 15.5965 91.0688 15.9334 91.1665C16.676 91.3806 17.3261 91.8274 17.8043 92.4172C17.8996 92.3871 17.9962 92.36 18.0912 92.3281C20.1806 91.6337 22.0158 90.6265 23.5992 89.3075C25.1818 87.9885 26.4321 86.4078 27.3504 84.5637C28.2683 82.7203 28.7274 80.6355 28.7274 78.3095C28.7274 76.4096 28.3787 74.5161 27.6828 72.6296Z" fill="#13102B"/>
</svg>
