<svg width="18" height="20" viewBox="0 0 18 20" fill="none" xmlns="http://www.w3.org/2000/svg">
<mask id="path-1-inside-1_1_544" fill="white">
<path fill-rule="evenodd" clip-rule="evenodd" d="M9 9.375C9.16576 9.375 9.32473 9.44085 9.44194 9.55806C9.55915 9.67527 9.625 9.83424 9.625 10V11.875H11.5C11.6658 11.875 11.8247 11.9408 11.9419 12.0581C12.0592 12.1753 12.125 12.3342 12.125 12.5C12.125 12.6658 12.0592 12.8247 11.9419 12.9419C11.8247 13.0592 11.6658 13.125 11.5 13.125H9.625V15C9.625 15.1658 9.55915 15.3247 9.44194 15.4419C9.32473 15.5592 9.16576 15.625 9 15.625C8.83424 15.625 8.67527 15.5592 8.55806 15.4419C8.44085 15.3247 8.375 15.1658 8.375 15V13.125H6.5C6.33424 13.125 6.17527 13.0592 6.05806 12.9419C5.94085 12.8247 5.875 12.6658 5.875 12.5C5.875 12.3342 5.94085 12.1753 6.05806 12.0581C6.17527 11.9408 6.33424 11.875 6.5 11.875H8.375V10C8.375 9.83424 8.44085 9.67527 8.55806 9.55806C8.67527 9.44085 8.83424 9.375 9 9.375Z"/>
</mask>
<path fill-rule="evenodd" clip-rule="evenodd" d="M9 9.375C9.16576 9.375 9.32473 9.44085 9.44194 9.55806C9.55915 9.67527 9.625 9.83424 9.625 10V11.875H11.5C11.6658 11.875 11.8247 11.9408 11.9419 12.0581C12.0592 12.1753 12.125 12.3342 12.125 12.5C12.125 12.6658 12.0592 12.8247 11.9419 12.9419C11.8247 13.0592 11.6658 13.125 11.5 13.125H9.625V15C9.625 15.1658 9.55915 15.3247 9.44194 15.4419C9.32473 15.5592 9.16576 15.625 9 15.625C8.83424 15.625 8.67527 15.5592 8.55806 15.4419C8.44085 15.3247 8.375 15.1658 8.375 15V13.125H6.5C6.33424 13.125 6.17527 13.0592 6.05806 12.9419C5.94085 12.8247 5.875 12.6658 5.875 12.5C5.875 12.3342 5.94085 12.1753 6.05806 12.0581C6.17527 11.9408 6.33424 11.875 6.5 11.875H8.375V10C8.375 9.83424 8.44085 9.67527 8.55806 9.55806C8.67527 9.44085 8.83424 9.375 9 9.375Z" fill="#EB3223"/>
<path d="M9.625 11.875H-5.375V26.875H9.625V11.875ZM9.625 13.125V-1.875H-5.375V13.125H9.625ZM8.375 13.125H23.375V-1.875H8.375V13.125ZM8.375 11.875V26.875H23.375V11.875H8.375ZM9 24.375C5.18752 24.375 1.53118 22.8605 -1.16466 20.1647L20.0485 -1.04854C17.1183 -3.9788 13.144 -5.625 9 -5.625V24.375ZM-1.16466 20.1647C-3.86051 17.4688 -5.375 13.8125 -5.375 10H24.625C24.625 5.85602 22.9788 1.88173 20.0485 -1.04854L-1.16466 20.1647ZM-5.375 10V11.875H24.625V10H-5.375ZM9.625 26.875H11.5V-3.125H9.625V26.875ZM11.5 26.875C7.68755 26.875 4.03121 25.3605 1.33534 22.6647L22.5485 1.45146C19.6183 -1.47883 15.644 -3.125 11.5 -3.125V26.875ZM1.33534 22.6647C-1.36052 19.9688 -2.875 16.3124 -2.875 12.5H27.125C27.125 8.35603 25.4788 4.38174 22.5485 1.45146L1.33534 22.6647ZM-2.875 12.5C-2.875 8.68755 -1.36052 5.03121 1.33534 2.33534L22.5485 23.5485C25.4788 20.6183 27.125 16.644 27.125 12.5H-2.875ZM1.33534 2.33534C4.03121 -0.360524 7.68755 -1.875 11.5 -1.875V28.125C15.644 28.125 19.6183 26.4788 22.5485 23.5485L1.33534 2.33534ZM11.5 -1.875H9.625V28.125H11.5V-1.875ZM-5.375 13.125V15H24.625V13.125H-5.375ZM-5.375 15C-5.375 11.1876 -3.86052 7.53121 -1.16466 4.83534L20.0485 26.0485C22.9788 23.1183 24.625 19.144 24.625 15H-5.375ZM-1.16466 4.83534C1.53121 2.13948 5.18755 0.625 9 0.625V30.625C13.144 30.625 17.1183 28.9788 20.0485 26.0485L-1.16466 4.83534ZM9 0.625C12.8125 0.625 16.4688 2.13949 19.1647 4.83534L-2.04854 26.0485C0.881731 28.9788 4.85602 30.625 9 30.625V0.625ZM19.1647 4.83534C21.8605 7.53118 23.375 11.1875 23.375 15H-6.625C-6.625 19.144 -4.9788 23.1183 -2.04854 26.0485L19.1647 4.83534ZM23.375 15V13.125H-6.625V15H23.375ZM8.375 -1.875H6.5V28.125H8.375V-1.875ZM6.5 -1.875C10.3125 -1.875 13.9688 -0.360514 16.6647 2.33534L-4.54854 23.5485C-1.61827 26.4788 2.35602 28.125 6.5 28.125V-1.875ZM16.6647 2.33534C19.3605 5.03118 20.875 8.68752 20.875 12.5H-9.125C-9.125 16.644 -7.4788 20.6183 -4.54854 23.5485L16.6647 2.33534ZM20.875 12.5C20.875 16.3125 19.3605 19.9688 16.6647 22.6647L-4.54854 1.45146C-7.4788 4.38172 -9.125 8.356 -9.125 12.5H20.875ZM16.6647 22.6647C13.9688 25.3605 10.3125 26.875 6.5 26.875V-3.125C2.35602 -3.125 -1.61827 -1.47882 -4.54854 1.45146L16.6647 22.6647ZM6.5 26.875H8.375V-3.125H6.5V26.875ZM23.375 11.875V10H-6.625V11.875H23.375ZM23.375 10C23.375 13.8125 21.8605 17.4688 19.1647 20.1647L-2.04854 -1.04854C-4.97879 1.88171 -6.625 5.85598 -6.625 10H23.375ZM19.1647 20.1647C16.4688 22.8605 12.8125 24.375 9 24.375V-5.625C4.85598 -5.625 0.881705 -3.97879 -2.04854 -1.04854L19.1647 20.1647Z" fill="black" mask="url(#path-1-inside-1_1_544)"/>
<path d="M9 1.25C9.8288 1.25 10.6237 1.57924 11.2097 2.16529C11.7958 2.75134 12.125 3.5462 12.125 4.375V5H5.875V4.375C5.875 3.5462 6.20424 2.75134 6.79029 2.16529C7.37634 1.57924 8.1712 1.25 9 1.25ZM13.375 5V4.375C13.375 3.21468 12.9141 2.10188 12.0936 1.28141C11.2731 0.460936 10.1603 0 9 0C7.83968 0 6.72688 0.460936 5.90641 1.28141C5.08594 2.10188 4.625 3.21468 4.625 4.375V5H0.25V17.5C0.25 18.163 0.513392 18.7989 0.982233 19.2678C1.45107 19.7366 2.08696 20 2.75 20H15.25C15.913 20 16.5489 19.7366 17.0178 19.2678C17.4866 18.7989 17.75 18.163 17.75 17.5V5H13.375ZM1.5 6.25H16.5V17.5C16.5 17.8315 16.3683 18.1495 16.1339 18.3839C15.8995 18.6183 15.5815 18.75 15.25 18.75H2.75C2.41848 18.75 2.10054 18.6183 1.86612 18.3839C1.6317 18.1495 1.5 17.8315 1.5 17.5V6.25Z" fill="#696160"/>
</svg>
