<svg width="25" height="25" viewBox="0 0 25 25" fill="none" xmlns="http://www.w3.org/2000/svg">
<path d="M22.649 12.8447L13.274 2.42808C12.8792 1.98849 12.1208 1.98849 11.726 2.42808L2.35103 12.8447C2.21609 12.9943 2.12752 13.1799 2.09608 13.3789C2.06464 13.5779 2.0917 13.7817 2.17395 13.9656C2.34062 14.3416 2.71353 14.5833 3.12499 14.5833H5.20833V21.875C5.20833 22.1512 5.31807 22.4162 5.51342 22.6115C5.70877 22.8069 5.97373 22.9166 6.24999 22.9166H9.37499C9.65126 22.9166 9.91621 22.8069 10.1116 22.6115C10.3069 22.4162 10.4167 22.1512 10.4167 21.875V17.7083H14.5833V21.875C14.5833 22.1512 14.6931 22.4162 14.8884 22.6115C15.0838 22.8069 15.3487 22.9166 15.625 22.9166H18.75C19.0263 22.9166 19.2912 22.8069 19.4866 22.6115C19.6819 22.4162 19.7917 22.1512 19.7917 21.875V14.5833H21.875C22.0767 14.5841 22.2744 14.5263 22.4438 14.4168C22.6132 14.3073 22.7471 14.1508 22.8291 13.9665C22.9112 13.7822 22.9378 13.578 22.9058 13.3788C22.8738 13.1796 22.7846 12.9941 22.649 12.8447Z" fill="#EB3223"/>
</svg>
