<svg width="26" height="26" viewBox="0 0 26 26" fill="none" xmlns="http://www.w3.org/2000/svg">
<path d="M8.684 7.56384C8.39582 7.56384 8.11944 7.67832 7.91566 7.8821C7.71189 8.08587 7.59741 8.36225 7.59741 8.65043C7.59741 8.93861 7.71189 9.21498 7.91566 9.41876C8.11944 9.62253 8.39582 9.73701 8.684 9.73701H17.2965C17.5847 9.73701 17.861 9.62253 18.0648 9.41876C18.2686 9.21498 18.3831 8.93861 18.3831 8.65043C18.3831 8.36225 18.2686 8.08587 18.0648 7.8821C17.861 7.67832 17.5847 7.56384 17.2965 7.56384H8.684Z" fill="#696160"/>
<path d="M7.60067 13C7.60067 12.402 8.08492 11.9135 8.684 11.9135H17.2965C17.5847 11.9135 17.8611 12.0279 18.0648 12.2317C18.2686 12.4355 18.3831 12.7119 18.3831 13C18.3831 13.2882 18.2686 13.5646 18.0648 13.7684C17.8611 13.9721 17.5847 14.0866 17.2965 14.0866H8.684C8.08492 14.0866 7.60067 13.5991 7.60067 13Z" fill="#696160"/>
<path d="M8.69374 16.2629C8.40542 16.2629 8.12891 16.3775 7.92503 16.5814C7.72116 16.7852 7.60662 17.0617 7.60662 17.3501C7.60662 17.6384 7.72116 17.9149 7.92503 18.1188C8.12891 18.3227 8.40542 18.4372 8.69374 18.4372H17.3062C17.5946 18.4372 17.8711 18.3227 18.075 18.1188C18.2788 17.9149 18.3934 17.6384 18.3934 17.3501C18.3934 17.0617 18.2788 16.7852 18.075 16.5814C17.8711 16.3775 17.5946 16.2629 17.3062 16.2629H8.69374Z" fill="#696160"/>
<path fill-rule="evenodd" clip-rule="evenodd" d="M3.25 6.5C3.25 5.63805 3.59241 4.8114 4.2019 4.2019C4.8114 3.59241 5.63805 3.25 6.5 3.25H19.5C20.362 3.25 21.1886 3.59241 21.7981 4.2019C22.4076 4.8114 22.75 5.63805 22.75 6.5V19.5C22.75 20.362 22.4076 21.1886 21.7981 21.7981C21.1886 22.4076 20.362 22.75 19.5 22.75H6.5C5.63805 22.75 4.8114 22.4076 4.2019 21.7981C3.59241 21.1886 3.25 20.362 3.25 19.5V6.5ZM6.5 5.41667H19.5C19.7873 5.41667 20.0629 5.5308 20.266 5.73397C20.4692 5.93713 20.5833 6.21268 20.5833 6.5V19.5C20.5833 19.7873 20.4692 20.0629 20.266 20.266C20.0629 20.4692 19.7873 20.5833 19.5 20.5833H6.5C6.21268 20.5833 5.93713 20.4692 5.73397 20.266C5.5308 20.0629 5.41667 19.7873 5.41667 19.5V6.5C5.41667 6.21268 5.5308 5.93713 5.73397 5.73397C5.93713 5.5308 6.21268 5.41667 6.5 5.41667Z" fill="#696160"/>
</svg>
