<svg width="274" height="87" viewBox="0 0 274 87" fill="none" xmlns="http://www.w3.org/2000/svg">
<circle cx="69" cy="16" r="9" fill="#FFE3E3" fill-opacity="0.69"/>
<g clip-path="url(#clip0_668_447)">
<path d="M3.8857 4.46564C3.65372 4.63963 3.47974 5.16159 3.47974 5.62555C3.47974 6.1475 4.34966 6.37948 6.37948 6.37948C8.87326 6.37948 9.27923 6.55346 9.5692 7.65537C9.74319 8.4093 11.715 18.9064 13.9188 31.0273C17.2245 48.7158 17.9205 53.7033 17.6305 56.1391C17.2825 58.8649 17.3985 59.3868 18.6164 60.6627C19.6023 61.7066 19.9503 62.6926 19.8343 63.9684C19.4283 68.55 25.0538 70.9278 27.8376 67.4481C28.7655 66.2302 28.9975 65.3023 28.7655 63.9104L28.4755 61.9966L37.5807 62.1706L46.6859 62.3446L46.512 64.0844C46.048 68.55 51.7895 70.8698 54.5153 67.4481C55.4432 66.2302 55.6752 65.3023 55.5012 63.9684C55.1532 62.1126 55.2112 62.0546 57.183 62.0546C58.5749 62.0546 59.1549 61.7646 59.1549 61.1847C59.1549 60.7207 59.0969 60.2568 59.0389 60.1988C58.9229 60.1408 50.1076 59.9088 39.4366 59.7348C21.2262 59.4448 20.0083 59.3868 19.8343 58.4009C19.7183 57.821 20.0663 56.8351 20.6462 56.1971C21.5742 55.1532 22.6181 55.0952 41.2344 55.0952C52.0215 55.0952 60.9527 54.8632 61.1267 54.5733C61.3007 54.3413 63.2725 45.642 65.5343 35.3189C68.724 20.7622 69.478 16.5286 68.898 16.1226C68.492 15.8906 55.8491 15.6587 40.8285 15.6587H13.4549L12.4689 10.2651C11.889 7.36539 11.1351 4.75562 10.7871 4.52364C9.97517 3.9437 4.40765 3.9437 3.8857 4.46564ZM16.5286 19.2544C17.0505 21.5162 22.6181 51.4995 22.6181 52.0795C22.6181 52.6014 20.8782 53.5873 20.5302 53.2394C20.4722 53.1234 19.0804 45.874 17.4565 37.1168C15.8327 28.3596 14.3248 20.4722 14.1508 19.5443C13.8608 18.2684 14.0348 17.9785 15.0207 17.9785C15.7747 17.9785 16.3546 18.4424 16.5286 19.2544ZM25.7498 18.9644C25.9818 19.8923 27.2577 26.5617 27.2577 27.0837C27.2577 27.1997 25.6918 27.2577 23.778 27.2577H20.3563L19.9503 25.0538C19.7763 23.8939 19.3703 21.9221 19.1384 20.7622C18.9064 19.6023 18.8484 18.5004 19.0224 18.2684C19.1964 18.0945 20.7042 17.9785 22.3861 17.9785C24.8219 17.9785 25.5178 18.2104 25.7498 18.9644ZM41.6404 22.734L41.8144 27.2577H35.7829H29.7514L28.8815 22.908C28.4175 20.5302 28.1276 18.4424 28.3016 18.2684C28.4755 18.0945 31.5493 18.0365 35.029 18.0945L41.4664 18.2684L41.6404 22.734ZM57.415 18.6164C57.415 18.9064 57.009 20.9942 56.4871 23.256L55.5592 27.2577H49.8177H44.0762V22.6181V17.9785H50.7456C55.0372 17.9785 57.415 18.2104 57.415 18.6164ZM66.6942 18.6164C66.6942 18.9064 66.2882 20.9942 65.7663 23.256L64.8384 27.2577H61.4167C58.3429 27.2577 57.937 27.1417 58.1689 26.2137C58.3429 25.6918 58.8069 23.778 59.1549 22.0381C59.5608 20.2983 60.0248 18.6744 60.1408 18.3844C60.5467 17.7465 66.6942 17.9205 66.6942 18.6164ZM28.1856 31.7233C28.3596 32.9412 28.8815 35.5509 29.2875 37.5807L30.0414 41.2344L26.5037 41.0604L22.966 40.8865L22.2701 37.4068C21.9221 35.4929 21.4002 32.9412 21.2262 31.7233L20.8202 29.5774H24.2999H27.7796L28.1856 31.7233ZM41.6404 35.5509L41.8144 41.2344L37.0008 41.0604L32.1872 40.8865L31.2013 35.6669C30.6793 32.7672 30.2154 30.2154 30.2154 29.9834C30.1574 29.7514 32.7092 29.6354 35.8409 29.6934L41.4664 29.8674L41.6404 35.5509ZM54.9212 30.8533C54.6892 31.5493 54.1093 34.159 53.5873 36.6528L52.6014 41.1764H48.3678H44.0762V35.3769V29.5774H49.6437C55.1532 29.5774 55.2112 29.5774 54.9212 30.8533ZM63.9684 29.9834C64.0844 30.2734 63.6785 32.8832 63.0405 35.7829L61.8806 41.1764H58.4589C55.1532 41.1764 54.9792 41.1184 55.2692 39.8426C55.4432 39.1466 56.0231 36.5368 56.5451 34.0431L57.531 29.5774H60.6047C62.3446 29.5774 63.8524 29.7514 63.9684 29.9834ZM31.1433 47.2659C32.3032 52.9494 32.3612 52.7754 28.5335 52.7754H25.1118L24.4739 49.0637C23.372 43.2063 23.314 43.4382 27.0837 43.6122L30.3894 43.7862L31.1433 47.2659ZM41.6404 48.2518L41.8144 52.7754H38.1027H34.391L33.7531 49.0637C32.6512 43.1483 32.4772 43.4382 37.2908 43.6122L41.4664 43.7862L41.6404 48.2518ZM51.7315 43.7862C51.9055 43.9602 51.6155 45.99 51.0936 48.3098L50.1076 52.4854L47.0919 52.6594L44.0762 52.8334V48.1938V43.4962H47.7299C49.7597 43.4962 51.5575 43.6122 51.7315 43.7862ZM61.0107 43.7862C61.1847 43.9602 60.8947 45.99 60.3727 48.3098L59.3868 52.4854L55.8491 52.6594L52.3115 52.8334L52.8914 50.3396C54.6892 42.8003 54.2253 43.4962 57.647 43.4962C59.3288 43.4962 60.8367 43.6122 61.0107 43.7862ZM25.7498 62.9825C27.4316 64.6644 26.4457 66.6942 23.9519 66.6942C22.1541 66.6942 21.4002 63.9684 22.908 62.8085C24.2999 61.8226 24.6479 61.8806 25.7498 62.9825ZM52.4274 62.9825C54.1093 64.6644 53.1234 66.6942 50.6296 66.6942C48.8318 66.6942 48.0778 63.9684 49.5857 62.8085C50.9776 61.8226 51.3255 61.8806 52.4274 62.9825Z" fill="white"/>
</g>
<path d="M132.797 41.9101C133.118 43.8679 133.866 45.6457 135.043 47.2432C136.286 48.8682 137.783 50.1338 139.534 51.0392C141.379 51.9983 143.277 52.4772 145.229 52.4772C147.475 52.4772 149.587 51.8915 151.566 50.7196C152.595 50.1068 153.48 49.4279 154.223 48.6819C154.965 47.9362 155.583 47.1106 156.077 46.2051V52.3973C152.883 55.1111 149.266 56.4677 145.229 56.4677C144.227 56.4677 143.254 56.3877 142.312 56.227C141.369 56.0666 140.463 55.8226 139.595 55.4952C138.725 55.1679 137.856 54.7433 136.988 54.2222C135.745 53.4868 134.622 52.6248 133.619 51.6353C132.616 50.6458 131.728 49.483 130.952 48.146C129.468 45.6065 128.726 42.8526 128.726 39.8847C128.726 36.944 129.468 34.1767 130.952 31.5831C131.674 30.3271 132.543 29.1906 133.559 28.1743C134.575 27.1587 135.718 26.2695 136.988 25.5076C139.475 24.0372 142.221 23.3016 145.229 23.3016C147.234 23.3016 149.192 23.6694 151.104 24.4043C153.016 25.2118 154.674 26.2279 156.077 27.452V33.5766C155.289 32.2555 154.36 31.135 153.29 30.2143C152.18 29.3199 150.931 28.6067 149.541 28.0727C148.163 27.5524 146.726 27.2923 145.229 27.2923C142.128 27.2923 139.407 28.306 137.068 30.3345C135.865 31.3884 134.912 32.5323 134.211 33.767C133.509 35.001 133.037 36.3719 132.797 37.8794H145.229V41.9101H132.797Z" fill="white"/>
<path d="M145.229 23.603C142.291 23.603 139.569 24.331 137.141 25.7668C135.9 26.5118 134.766 27.3937 133.772 28.3873C132.78 29.3796 131.919 30.5054 131.214 31.7331C129.763 34.2676 129.028 37.0102 129.028 39.8843C129.028 42.7845 129.763 45.513 131.213 47.9936C131.971 49.3016 132.852 50.4544 133.831 51.4206C134.81 52.3866 135.924 53.2418 137.141 53.9623C137.994 54.4738 138.855 54.8946 139.701 55.213C140.549 55.5323 141.444 55.7732 142.362 55.9291C143.281 56.0864 144.245 56.1659 145.229 56.1659C149.129 56.1659 152.677 54.8507 155.776 52.2568V47.2743C155.384 47.8504 154.935 48.3928 154.437 48.894C153.68 49.6538 152.767 50.3552 151.72 50.9783C149.703 52.173 147.519 52.7786 145.229 52.7786C143.237 52.7786 141.274 52.2834 139.395 51.3066C137.614 50.3854 136.069 49.0801 134.803 47.4263C133.6 45.7927 132.827 43.954 132.5 41.9586L132.442 41.6082H144.928V38.1805H132.444L132.5 37.8318C132.744 36.2954 133.232 34.8775 133.949 33.6175C134.663 32.3603 135.646 31.1795 136.869 30.1076C139.255 28.0389 142.067 26.9905 145.229 26.9905C146.755 26.9905 148.242 27.2596 149.647 27.7903C151.062 28.3339 152.351 29.0702 153.479 29.9793C154.331 30.7127 155.1 31.5739 155.776 32.5504V27.5896C154.424 26.4313 152.814 25.4533 150.987 24.6818C149.128 23.9672 147.187 23.603 145.229 23.603ZM145.229 56.7689C144.211 56.7689 143.213 56.6865 142.261 56.5236C141.305 56.3615 140.372 56.1103 139.488 55.7772C138.609 55.446 137.715 55.0097 136.833 54.4803C135.574 53.7358 134.421 52.8505 133.407 51.85C132.39 50.8459 131.476 49.6505 130.692 48.297C129.188 45.7235 128.425 42.893 128.425 39.8843C128.425 36.9039 129.187 34.0605 130.691 31.4331C131.423 30.1589 132.316 28.9907 133.346 27.9608C134.374 26.9325 135.547 26.0202 136.832 25.2488C139.357 23.7562 142.181 23 145.229 23C147.262 23 149.275 23.3779 151.213 24.1226C153.154 24.9426 154.854 25.985 156.276 27.2247L156.379 27.3147V34.6694L155.819 33.731C155.051 32.4446 154.134 31.3382 153.093 30.4426C152.022 29.5791 150.787 28.8744 149.432 28.3538C148.097 27.8494 146.682 27.5934 145.229 27.5934C142.217 27.5934 139.537 28.5923 137.266 30.5619C136.094 31.5885 135.154 32.7171 134.473 33.9156C133.846 35.0169 133.404 36.2473 133.155 37.5775H145.531V42.2112H133.157C133.499 43.9773 134.214 45.6085 135.286 47.0647C136.493 48.6423 137.97 49.8907 139.673 50.7712C141.466 51.7034 143.335 52.1754 145.229 52.1754C147.409 52.1754 149.49 51.5981 151.412 50.4599C152.415 49.8629 153.288 49.1926 154.009 48.4689C154.727 47.747 155.334 46.9364 155.813 46.0602L156.379 45.0245V52.5365L156.273 52.6266C153.036 55.3754 149.321 56.7689 145.229 56.7689Z" fill="white"/>
<path d="M160.388 29.1566L160.569 28.2948L169.392 25.2667L170.575 25.9286L163.276 51.0937L163.717 51.4148C164.372 51.1739 165.264 50.6023 166.394 49.7002C167.524 48.7982 168.603 47.8252 169.632 46.7826L170.535 47.6851C169.893 48.5005 169.124 49.3961 168.229 50.3719C167.44 51.2412 166.521 52.1301 165.472 53.0391C164.422 53.9481 163.382 54.6598 162.353 55.1742C161.324 55.689 160.301 55.9465 159.286 55.9465C158.67 55.9465 158.183 55.7724 157.822 55.4254C157.461 55.0777 157.28 54.6364 157.28 54.1014C157.28 53.4201 157.374 52.7316 157.561 52.0362L162.855 33.3878C163.082 32.7328 163.196 32.2048 163.196 31.8037C163.196 31.4165 162.895 30.9883 162.293 30.5201L160.388 29.1566Z" fill="white"/>
<path d="M176.991 41.9099C177.311 43.8678 178.06 45.646 179.237 47.2435C180.479 48.8685 181.977 50.1336 183.728 51.0391C185.573 51.9981 187.471 52.4775 189.423 52.4775C191.669 52.4775 193.781 51.8918 195.759 50.7194C196.789 50.1068 197.674 49.4282 198.416 48.6822C199.158 47.9365 199.776 47.1109 200.271 46.205V52.3976C197.076 55.1114 193.46 56.468 189.423 56.468C188.42 56.468 187.448 56.3876 186.505 56.2274C185.563 56.0669 184.657 55.8229 183.788 55.4951C182.919 55.1677 182.05 54.7431 181.182 54.2221C179.938 53.4871 178.816 52.6246 177.813 51.6351C176.81 50.6463 175.921 49.4835 175.146 48.1463C173.662 45.6068 172.92 42.8529 172.92 39.885C172.92 36.9443 173.662 34.177 175.146 31.5834C175.868 30.3269 176.737 29.1904 177.753 28.1746C178.768 27.1585 179.911 26.2694 181.182 25.5074C183.668 24.0371 186.415 23.3019 189.423 23.3019C191.428 23.3019 193.386 23.6697 195.298 24.4046C197.21 25.2121 198.867 26.2277 200.271 27.4523V33.5765C199.482 32.2558 198.553 31.1349 197.484 30.2141C196.374 29.3204 195.124 28.6066 193.734 28.0726C192.357 27.5522 190.92 27.2921 189.423 27.2921C186.321 27.2921 183.601 28.3063 181.262 30.3343C180.058 31.3882 179.106 32.5326 178.404 33.7668C177.703 35.0013 177.231 36.3722 176.991 37.8797H189.423V41.9099H176.991Z" fill="white"/>
<path d="M189.423 23.6037C186.484 23.6037 183.762 24.3314 181.335 25.7671C180.094 26.5113 178.96 27.3933 177.966 28.388C176.974 29.3799 176.113 30.5056 175.407 31.7341C173.957 34.2688 173.222 37.0114 173.222 39.8853C173.222 42.7852 173.957 45.5135 175.406 47.9943C176.164 49.3021 177.045 50.4549 178.024 51.4209C179.006 52.3893 180.12 53.2442 181.335 53.9623C182.188 54.4741 183.048 54.8946 183.895 55.2133C184.743 55.5332 185.639 55.7744 186.556 55.93C187.478 56.0871 188.442 56.1666 189.423 56.1666C193.323 56.1666 196.871 54.8515 199.969 52.2576V47.2752C199.577 47.8509 199.129 48.3935 198.63 48.895C197.874 49.6546 196.96 50.3557 195.913 50.9786C193.897 52.1735 191.713 52.7791 189.423 52.7791C187.431 52.7791 185.468 52.2839 183.589 51.3071C181.806 50.3849 180.261 49.0794 178.997 47.4268C177.794 45.7934 177.02 43.955 176.693 41.9588L176.636 41.6085H189.121V38.1812H176.637L176.693 37.8323C176.938 36.2962 177.426 34.8785 178.142 33.618C178.858 32.3593 179.841 31.178 181.063 30.1079C183.449 28.0389 186.262 26.9907 189.423 26.9907C190.949 26.9907 192.435 27.2599 193.84 27.7905C195.255 28.3339 196.544 29.0703 197.672 29.9795C198.524 30.7128 199.293 31.5739 199.969 32.5509V27.5901C198.618 26.4323 197.008 25.4545 195.181 24.6825C193.321 23.9679 191.381 23.6037 189.423 23.6037ZM189.423 56.7698C188.409 56.7698 187.41 56.6872 186.454 56.5246C185.5 56.3623 184.567 56.1111 183.682 55.7775C182.802 55.4461 181.909 55.0095 181.026 54.4805C179.77 53.7384 178.618 52.8531 177.601 51.8502C176.583 50.8466 175.669 49.651 174.885 48.298C173.381 45.724 172.619 42.8935 172.619 39.8853C172.619 36.9049 173.381 34.0615 174.884 31.434C175.617 30.1591 176.51 28.991 177.539 27.9615C178.569 26.9321 179.742 26.0192 181.026 25.2491C183.549 23.7567 186.374 23.0007 189.423 23.0007C191.455 23.0007 193.468 23.3786 195.406 24.1234C197.348 24.9435 199.049 25.9862 200.469 27.2254L200.573 27.3154V34.6695L200.012 33.7312C199.244 32.4443 198.327 31.338 197.287 30.4429C196.215 29.5794 194.981 28.8744 193.626 28.354C192.291 27.8497 190.876 27.5937 189.423 27.5937C186.411 27.5937 183.731 28.5925 181.459 30.5621C180.289 31.5873 179.349 32.7159 178.666 33.9159C178.04 35.0176 177.598 36.2483 177.349 37.5783H189.724V42.2115H177.351C177.692 43.978 178.407 45.6093 179.479 47.0652C180.685 48.6419 182.163 49.8904 183.867 50.7714C185.66 51.7037 187.529 52.1759 189.423 52.1759C191.604 52.1759 193.684 51.5986 195.606 50.4601C196.609 49.8634 197.482 49.1936 198.203 48.4699C198.921 47.7472 199.528 46.9369 200.006 46.0604L200.573 45.0238V52.5373L200.466 52.6273C197.23 55.3764 193.514 56.7698 189.423 56.7698Z" fill="white"/>
<path d="M207.891 24.4847V48.3868C211.38 46.3412 214.254 43.2464 216.513 39.1027C217.248 37.7257 217.873 36.2619 218.388 34.7111C218.902 33.1603 219.287 31.5463 219.541 29.8686C219.795 28.1909 219.922 26.3963 219.922 24.4847H223.892C223.892 25.835 223.832 27.1583 223.712 28.4545C223.591 29.7515 223.408 31.0183 223.161 32.2549C222.913 33.4912 222.609 34.6376 222.248 35.6936C221.166 39.0492 219.675 42.0368 217.777 44.6566C215.932 47.1435 213.813 49.2888 211.42 51.0937C210.271 51.9491 209.057 52.7312 207.781 53.4398C206.504 54.1486 205.197 54.7628 203.86 55.2846V24.4847H207.891Z" fill="white"/>
<path d="M204.162 24.7866V54.8401C205.343 54.3602 206.509 53.8013 207.634 53.1765C208.894 52.4771 210.107 51.6952 211.24 50.8523C213.597 49.0738 215.716 46.9286 217.535 44.4774C219.404 41.8974 220.894 38.9101 221.961 35.6016C222.318 34.5578 222.621 33.4136 222.865 32.1959C223.109 30.9742 223.293 29.7059 223.412 28.4272C223.522 27.2409 223.582 26.0177 223.59 24.7866H220.222C220.21 26.5914 220.081 28.3149 219.84 29.914C219.585 31.5963 219.193 33.2424 218.674 34.8063C218.156 36.3662 217.519 37.8595 216.779 39.2451C214.502 43.4209 211.564 46.5833 208.043 48.647L207.589 48.9131V24.7866H204.162ZM203.559 55.7264V24.1836H208.192V47.8525C211.417 45.8429 214.125 42.8536 216.249 38.9589C216.971 37.6057 217.595 36.144 218.102 34.6167C218.61 33.0848 218.994 31.4725 219.243 29.824C219.494 28.1657 219.621 26.3695 219.621 24.4851V24.1836H224.194V24.4851C224.194 25.8362 224.133 27.1812 224.013 28.483C223.892 29.7826 223.704 31.0716 223.456 32.3142C223.207 33.5578 222.897 34.7278 222.534 35.7915C221.448 39.1558 219.929 42.1996 218.021 44.8338C216.166 47.3343 214.007 49.5206 211.601 51.3348C210.445 52.195 209.21 52.9917 207.927 53.7034C206.648 54.4139 205.316 55.0403 203.97 55.5659L203.559 55.7264Z" fill="white"/>
<path d="M229.487 41.9099C229.808 43.8678 230.556 45.646 231.732 47.2435C232.976 48.8685 234.473 50.1336 236.224 51.0391C238.069 51.9981 239.967 52.4775 241.919 52.4775C244.165 52.4775 246.277 51.8918 248.256 50.7194C249.285 50.1068 250.17 49.4282 250.913 48.6822C251.654 47.9365 252.272 47.1109 252.767 46.205V52.3976C249.572 55.1114 245.956 56.468 241.919 56.468C240.917 56.468 239.944 56.3876 239.001 56.2274C238.059 56.0669 237.153 55.8229 236.285 55.4951C235.415 55.1677 234.546 54.7431 233.677 54.2221C232.435 53.4871 231.311 52.6246 230.309 51.6351C229.306 50.6463 228.417 49.4835 227.642 48.1463C226.158 45.6068 225.416 42.8529 225.416 39.885C225.416 36.9443 226.158 34.177 227.642 31.5834C228.364 30.3269 229.233 29.1904 230.249 28.1746C231.264 27.1585 232.408 26.2694 233.677 25.5074C236.164 24.0371 238.911 23.3019 241.919 23.3019C243.924 23.3019 245.882 23.6697 247.794 24.4046C249.706 25.2121 251.363 26.2277 252.767 27.4523V33.5765C251.978 32.2558 251.049 31.1349 249.98 30.2141C248.87 29.3204 247.62 28.6066 246.23 28.0726C244.853 27.5522 243.416 27.2921 241.919 27.2921C238.818 27.2921 236.097 28.3063 233.758 30.3343C232.555 31.3882 231.602 32.5326 230.9 33.7668C230.198 35.0013 229.727 36.3722 229.487 37.8797H241.919V41.9099H229.487Z" fill="white"/>
<path d="M241.919 23.6037C238.98 23.6037 236.259 24.3314 233.831 25.7671C232.589 26.5123 231.455 27.3945 230.462 28.388C229.47 29.3799 228.609 30.5056 227.904 31.7338C226.453 34.2684 225.718 37.011 225.718 39.8853C225.718 42.7857 226.453 45.5137 227.903 47.9943C228.661 49.3028 229.542 50.4556 230.52 51.4209C231.501 52.3883 232.615 53.2432 233.831 53.9626C234.684 54.4741 235.544 54.8946 236.391 55.2133C237.239 55.533 238.134 55.7741 239.052 55.93C239.974 56.0871 240.939 56.1666 241.919 56.1666C245.819 56.1666 249.367 54.8515 252.466 52.2576V47.2747C252.074 47.8514 251.625 48.3935 251.126 48.895C250.369 49.6555 249.456 50.3567 248.41 50.9786C246.393 52.1735 244.209 52.7791 241.919 52.7791C239.928 52.7791 237.964 52.2839 236.085 51.3071C234.303 50.3852 232.758 49.0796 231.493 47.4268C230.291 45.7932 229.517 43.9548 229.189 41.9588L229.132 41.6085H241.618V38.1812H229.134L229.189 37.8323C229.434 36.2959 229.922 34.878 230.639 33.6177C231.354 32.3598 232.337 31.1788 233.559 30.1076C235.946 28.0389 238.758 26.9907 241.919 26.9907C243.445 26.9907 244.931 27.2599 246.337 27.7905C247.751 28.3339 249.04 29.0703 250.169 29.9795C251.021 30.7123 251.789 31.5736 252.466 32.5511V27.5904C251.115 26.4323 249.504 25.4543 247.677 24.6825C245.817 23.9679 243.877 23.6037 241.919 23.6037ZM241.919 56.7698C240.905 56.7698 239.907 56.6872 238.951 56.5246C237.995 56.3623 237.062 56.1108 236.178 55.7775C235.298 55.4461 234.405 55.0095 233.523 54.4805C232.266 53.7375 231.113 52.8522 230.097 51.8502C229.08 50.8471 228.166 49.6517 227.381 48.298C225.878 45.7247 225.115 42.8942 225.115 39.8853C225.115 36.9046 225.877 34.0612 227.381 31.434C228.113 30.1591 229.006 28.991 230.036 27.9615C231.063 26.9333 232.236 26.0206 233.523 25.2491C236.046 23.7567 238.871 23.0007 241.919 23.0007C243.951 23.0007 245.964 23.3786 247.902 24.1234C249.845 24.9435 251.545 25.9859 252.966 27.2254L253.069 27.3154V34.669L252.509 33.7312C251.74 32.4441 250.823 31.3375 249.784 30.4429C248.711 29.5791 247.476 28.8741 246.122 28.354C244.787 27.8497 243.372 27.5937 241.919 27.5937C238.907 27.5937 236.227 28.5925 233.956 30.5621C232.785 31.588 231.845 32.7166 231.163 33.9159C230.536 35.0174 230.094 36.2478 229.845 37.5783H242.221V42.2115H229.847C230.189 43.9778 230.904 45.609 231.976 47.0652C233.182 48.6421 234.66 49.8907 236.363 50.7714C238.156 51.7037 240.025 52.1759 241.919 52.1759C244.1 52.1759 246.18 51.5986 248.102 50.4601C249.104 49.8643 249.978 49.1943 250.699 48.4699C251.417 47.7482 252.024 46.9376 252.503 46.0604L253.069 45.0245V52.5373L252.963 52.6278C249.727 55.3764 246.011 56.7698 241.919 56.7698Z" fill="white"/>
<path d="M260.909 42.231C262.78 42.0708 264.411 41.3423 265.801 40.0454C267.138 38.8021 267.806 37.2851 267.806 35.4936C267.806 34.264 267.479 33.1406 266.824 32.1248C266.155 31.1492 265.253 30.3401 264.116 29.6985C263.007 29.0967 261.763 28.7962 260.387 28.7962V55.2851H256.357V24.4851C257.934 24.4851 259.277 24.5385 260.387 24.6453C262.392 24.7655 264.29 25.3136 266.082 26.2895C267.806 27.2253 269.19 28.5153 270.232 30.1597C271.248 31.791 271.757 33.5688 271.757 35.4936C271.757 37.4455 271.235 39.2365 270.193 40.8677C269.11 42.5517 267.699 43.8553 265.962 44.7777C266.991 46.6226 268.154 48.1935 269.45 49.4897C270.814 50.8935 272.171 51.8961 273.521 52.4977V56.468C271.222 55.6924 269.25 54.5896 267.606 53.1591C265.934 51.729 264.578 50.1114 263.535 48.3068C262.452 46.3951 261.577 44.3699 260.909 42.231Z" fill="white"/>
<path d="M260.688 29.1026V41.9471L260.883 41.9304C262.677 41.7766 264.262 41.0681 265.596 39.8245C266.862 38.6458 267.505 37.1887 267.505 35.4933C267.505 34.3287 267.19 33.2502 266.57 32.2878C265.935 31.3618 265.058 30.5763 263.968 29.9606C262.994 29.4324 261.891 29.1438 260.688 29.1026ZM261.308 42.4914C261.953 44.4735 262.789 46.378 263.797 48.1577C264.817 49.923 266.165 51.5292 267.802 52.9298C269.314 54.2454 271.134 55.2912 273.22 56.0433V52.691C271.898 52.068 270.558 51.0624 269.234 49.6999C267.927 48.3933 266.736 46.7853 265.698 44.9242L265.548 44.6553L265.82 44.5109C267.503 43.6179 268.889 42.337 269.939 40.7043C270.945 39.1305 271.455 37.3772 271.455 35.4933C271.455 33.6348 270.958 31.8939 269.976 30.3189C268.968 28.7281 267.609 27.4608 265.938 26.554C264.193 25.6038 262.32 25.0628 260.369 24.946C259.335 24.8468 258.091 24.7934 256.658 24.7872V54.983H260.085V28.4944H260.387C261.808 28.4944 263.111 28.8102 264.26 29.4331C265.435 30.0967 266.38 30.9441 267.073 31.954C267.761 33.0227 268.108 34.2109 268.108 35.4933C268.108 37.3628 267.401 38.9687 266.007 40.2658C264.665 41.5166 263.087 42.2642 261.308 42.4914ZM273.823 56.8877L273.425 56.7536C271.098 55.9681 269.073 54.8352 267.408 53.386C265.721 51.9429 264.329 50.2839 263.274 48.457C262.22 46.5973 261.352 44.6062 260.688 42.5343V55.5862H256.055V24.1833H256.357C257.936 24.1833 259.302 24.2379 260.416 24.3449C262.445 24.4663 264.403 25.0317 266.226 26.0243C267.988 26.9805 269.422 28.3174 270.487 29.998C271.53 31.6721 272.058 33.5205 272.058 35.4933C272.058 37.494 271.516 39.3566 270.447 41.0295C269.397 42.6624 268.028 43.9615 266.374 44.895C267.349 46.5954 268.455 48.0684 269.663 49.2765C270.996 50.6486 272.335 51.6383 273.644 52.2222L273.823 52.3017V56.8877Z" fill="white"/>
<path d="M105.729 35.6364L108.572 31.3406L117.511 37.3366L117.206 42.2938L116.773 42.9482L105.729 35.6364Z" fill="#EEEDF3"/>
<path d="M102.556 41.827L109.485 36.8066L108.573 31.3405L102.556 35.6227V41.827Z" fill="#F1F1F1"/>
<path d="M109.588 43.367C109.588 43.8773 109.174 44.2908 108.664 44.2908C108.596 44.2908 108.53 44.2836 108.466 44.2698C108.289 44.231 108.131 44.1419 108.009 44.0186C107.842 43.8512 107.74 43.6213 107.74 43.367C107.74 42.8564 108.154 42.4429 108.664 42.4429C108.753 42.4429 108.839 42.4553 108.921 42.479C109.225 42.5667 109.464 42.8061 109.552 43.1103C109.575 43.1919 109.588 43.2779 109.588 43.367Z" fill="white"/>
<path d="M108.664 40.6903C107.206 40.6903 106.02 41.8764 106.02 43.334C106.02 43.8398 106.164 44.3321 106.437 44.7581L106.446 44.7718C106.481 44.8259 106.515 44.8747 106.55 44.921L107.462 46.2284L108.66 48.0637L109.856 46.2328L110.765 44.9375C110.808 44.8817 110.85 44.8223 110.89 44.7598L110.898 44.7473C111.166 44.3242 111.308 43.8355 111.308 43.334C111.308 41.8764 110.122 40.6903 108.664 40.6903ZM110.415 44.4415L110.408 44.4526C110.377 44.5019 110.343 44.5498 110.309 44.5943L109.386 45.9085L108.66 47.0192L107.935 45.9092L107.015 44.5903L107.009 44.5816C106.979 44.5424 106.952 44.5021 106.926 44.4621L106.918 44.4499C106.704 44.1164 106.591 43.7306 106.591 43.334C106.591 42.191 107.521 41.2612 108.664 41.2612C109.807 41.2612 110.737 42.191 110.737 43.334C110.737 43.727 110.626 44.1101 110.415 44.4415Z" fill="#ED1C24"/>
<path d="M251.061 39.7089C251.061 41.0308 249.989 42.1024 248.668 42.1024C248.491 42.1024 248.32 42.0835 248.154 42.0471C247.697 41.9472 247.289 41.7166 246.97 41.3965C246.54 40.9638 246.274 40.3675 246.274 39.7089C246.274 38.3871 247.346 37.3155 248.668 37.3155C248.898 37.3155 249.121 37.3483 249.332 37.4091C250.12 37.6364 250.74 38.2568 250.967 39.0442C251.028 39.2552 251.061 39.4783 251.061 39.7089Z" fill="white"/>
<path d="M248.668 37.6997C247.56 37.6997 246.658 38.601 246.658 39.7091C246.658 40.2433 246.866 40.7462 247.243 41.1253C247.516 41.4004 247.86 41.5896 248.236 41.6717C248.377 41.7021 248.522 41.7179 248.668 41.7179C249.775 41.7179 250.677 40.8168 250.677 39.7091C250.677 39.5192 250.65 39.3312 250.598 39.1504C250.409 38.4935 249.883 37.9677 249.226 37.7785C249.045 37.7263 248.858 37.6997 248.668 37.6997ZM248.668 42.4866C248.468 42.4866 248.267 42.4651 248.073 42.4229C247.551 42.3087 247.076 42.0479 246.697 41.6672C246.177 41.1432 245.89 40.4478 245.89 39.7091C245.89 38.1772 247.136 36.931 248.668 36.931C248.93 36.931 249.189 36.9676 249.439 37.04C250.347 37.3017 251.075 38.029 251.337 38.9375C251.409 39.1875 251.445 39.4471 251.445 39.7091C251.445 41.2404 250.199 42.4866 248.668 42.4866Z" fill="#ED1C24"/>
<path d="M198.078 39.7089C198.078 41.0308 197.006 42.1024 195.684 42.1024C195.508 42.1024 195.336 42.0835 195.171 42.0471C194.714 41.9472 194.305 41.7166 193.987 41.3965C193.556 40.9638 193.291 40.3675 193.291 39.7089C193.291 38.3871 194.362 37.3155 195.684 37.3155C195.915 37.3155 196.138 37.3483 196.349 37.4091C197.136 37.6364 197.757 38.2568 197.984 39.0442C198.045 39.2552 198.078 39.4783 198.078 39.7089Z" fill="white"/>
<path d="M195.685 37.6997C194.577 37.6997 193.675 38.601 193.675 39.7091C193.675 40.2433 193.883 40.7462 194.259 41.1253C194.533 41.4004 194.877 41.5896 195.253 41.6717C195.394 41.7021 195.539 41.7179 195.685 41.7179C196.792 41.7179 197.693 40.8168 197.693 39.7091C197.693 39.5192 197.667 39.3312 197.615 39.1504C197.425 38.4935 196.899 37.9677 196.243 37.7785C196.062 37.7263 195.874 37.6997 195.685 37.6997ZM195.685 42.4866C195.484 42.4866 195.284 42.4651 195.089 42.4229C194.568 42.3087 194.093 42.0479 193.714 41.6672C193.193 41.1432 192.906 40.4478 192.906 39.7091C192.906 38.1772 194.153 36.931 195.685 36.931C195.947 36.931 196.206 36.9676 196.456 37.04C197.364 37.3017 198.092 38.029 198.354 38.9375C198.425 39.1875 198.462 39.4471 198.462 39.7091C198.462 41.2404 197.216 42.4866 195.685 42.4866Z" fill="#ED1C24"/>
<path d="M153.884 39.7089C153.884 41.0308 152.812 42.1024 151.491 42.1024C151.315 42.1024 151.143 42.0835 150.977 42.0471C150.52 41.9472 150.112 41.7166 149.793 41.3965C149.363 40.9638 149.097 40.3675 149.097 39.7089C149.097 38.3871 150.169 37.3155 151.491 37.3155C151.721 37.3155 151.945 37.3483 152.156 37.4091C152.943 37.6364 153.563 38.2568 153.79 39.0442C153.851 39.2552 153.884 39.4783 153.884 39.7089Z" fill="white"/>
<path d="M151.491 37.6997C150.383 37.6997 149.482 38.601 149.482 39.7091C149.482 40.2433 149.689 40.7462 150.066 41.1253C150.34 41.4004 150.683 41.5896 151.059 41.6717C151.2 41.7021 151.346 41.7179 151.491 41.7179C152.598 41.7179 153.5 40.8168 153.5 39.7091C153.5 39.5192 153.473 39.3312 153.421 39.1504C153.232 38.4935 152.706 37.9677 152.049 37.7785C151.868 37.7263 151.681 37.6997 151.491 37.6997ZM151.491 42.4866C151.291 42.4866 151.091 42.4651 150.895 42.4229C150.375 42.3087 149.899 42.0479 149.521 41.6672C149 41.1432 148.713 40.4478 148.713 39.7091C148.713 38.1772 149.959 36.931 151.491 36.931C151.753 36.931 152.013 36.9676 152.262 37.04C153.17 37.3017 153.898 38.029 154.16 38.9375C154.232 39.1875 154.268 39.4471 154.268 39.7091C154.268 41.2404 153.022 42.4866 151.491 42.4866Z" fill="#ED1C24"/>
<path d="M100.349 55.3709C100.824 54.5854 101.685 54.0576 102.668 54.0576C102.924 54.0576 103.178 54.0933 103.421 54.1637C104.079 54.3534 104.639 54.7942 104.989 55.3709H100.349ZM105.772 55.8721C105.465 54.8093 104.628 53.9717 103.565 53.6652C103.28 53.5828 102.979 53.539 102.668 53.539C100.884 53.539 99.4371 54.9853 99.4371 56.7696C99.4371 57.6583 99.7959 58.4631 100.377 59.0474C100.806 59.4794 101.358 59.7907 101.975 59.9258C102.198 59.9746 102.43 60 102.668 60C104.452 60 105.898 58.5536 105.898 56.7696C105.898 56.458 105.854 56.157 105.772 55.8721Z" fill="#270036"/>
<path d="M109.59 55.3431C110.069 54.573 110.921 54.0576 111.892 54.0576C112.149 54.0576 112.402 54.0933 112.646 54.1637C113.033 54.2753 113.383 54.4774 113.679 54.7392C112.353 55.0751 110.99 55.2763 109.59 55.3431ZM114.996 55.8721C114.69 54.8093 113.852 53.9717 112.79 53.6652C112.505 53.5828 112.204 53.539 111.892 53.539C110.108 53.539 108.661 54.9853 108.661 56.7696C108.661 57.6583 109.02 58.4631 109.601 59.0472C110.031 59.4794 110.582 59.7907 111.199 59.9258C111.422 59.9744 111.654 60 111.892 60C113.676 60 115.123 58.5536 115.123 56.7696C115.123 56.458 115.079 56.157 114.996 55.8721Z" fill="#270036"/>
<path d="M124.683 34.6296C123.986 32.7438 122.902 31.0345 121.43 29.5031C119.958 27.9715 118.012 26.7375 115.59 25.8017C113.168 24.8656 110.248 24.3975 106.829 24.3975H97V45.8367L102.556 41.8151V29.1626H108.349C109.678 29.1626 111.023 29.3614 112.385 29.7584C113.745 30.1559 115.004 30.7867 116.159 31.6516C117.315 32.5171 118.249 33.637 118.961 35.0128C119.673 36.3887 120.03 38.0406 120.03 39.9692C120.03 41.6994 119.721 43.2238 119.103 44.5428C118.486 45.8618 117.623 46.9679 116.516 47.8614C115.407 48.7548 114.086 49.4356 112.551 49.9038C111.015 50.3714 109.314 50.6054 107.446 50.6054H102.556V42.1302L97 46.1554V55.3705H99.1916C99.7474 53.9943 101.095 53.0195 102.668 53.0195C103.022 53.0195 103.372 53.069 103.709 53.1667C104.813 53.4847 105.714 54.314 106.142 55.3705H108.416C108.972 53.9943 110.319 53.0195 111.892 53.0195C112.246 53.0195 112.596 53.0688 112.933 53.1665C113.676 53.3806 114.326 53.8274 114.804 54.4172C114.9 54.3871 114.996 54.36 115.091 54.3281C117.181 53.6337 119.016 52.6265 120.599 51.3075C122.182 49.9885 123.432 48.4078 124.35 46.5637C125.268 44.7203 125.727 42.6355 125.727 40.3095C125.727 38.4096 125.379 36.5161 124.683 34.6296Z" fill="white"/>
<path d="M125.686 73.328L121.066 84.612H119.75L121.262 80.916L118.168 73.328H119.582L121.99 79.544L124.37 73.328H125.686ZM131.153 81.126C130.434 81.126 129.781 80.9627 129.193 80.636C128.614 80.3093 128.157 79.8473 127.821 79.25C127.494 78.6433 127.331 77.9433 127.331 77.15C127.331 76.366 127.499 75.6753 127.835 75.078C128.18 74.4713 128.647 74.0093 129.235 73.692C129.823 73.3653 130.481 73.202 131.209 73.202C131.937 73.202 132.595 73.3653 133.183 73.692C133.771 74.0093 134.233 74.4667 134.569 75.064C134.914 75.6613 135.087 76.3567 135.087 77.15C135.087 77.9433 134.909 78.6433 134.555 79.25C134.209 79.8473 133.738 80.3093 133.141 80.636C132.543 80.9627 131.881 81.126 131.153 81.126ZM131.153 80.006C131.61 80.006 132.039 79.8987 132.441 79.684C132.842 79.4693 133.164 79.1473 133.407 78.718C133.659 78.2887 133.785 77.766 133.785 77.15C133.785 76.534 133.663 76.0113 133.421 75.582C133.178 75.1527 132.861 74.8353 132.469 74.63C132.077 74.4153 131.652 74.308 131.195 74.308C130.728 74.308 130.299 74.4153 129.907 74.63C129.524 74.8353 129.216 75.1527 128.983 75.582C128.749 76.0113 128.633 76.534 128.633 77.15C128.633 77.7753 128.745 78.3027 128.969 78.732C129.202 79.1613 129.51 79.4833 129.893 79.698C130.275 79.9033 130.695 80.006 131.153 80.006ZM144.406 73.328V81H143.132V79.866C142.889 80.258 142.548 80.566 142.11 80.79C141.68 81.0047 141.204 81.112 140.682 81.112C140.084 81.112 139.548 80.9907 139.072 80.748C138.596 80.496 138.218 80.1227 137.938 79.628C137.667 79.1333 137.532 78.5313 137.532 77.822V73.328H138.792V77.654C138.792 78.41 138.983 78.9933 139.366 79.404C139.748 79.8053 140.271 80.006 140.934 80.006C141.615 80.006 142.152 79.796 142.544 79.376C142.936 78.956 143.132 78.3447 143.132 77.542V73.328H144.406ZM148.671 74.574C148.895 74.1353 149.212 73.7947 149.623 73.552C150.043 73.3093 150.551 73.188 151.149 73.188V74.504H150.813C149.385 74.504 148.671 75.2787 148.671 76.828V81H147.397V73.328H148.671V74.574ZM157.556 77.136C157.556 76.352 157.715 75.666 158.032 75.078C158.349 74.4807 158.783 74.0187 159.334 73.692C159.894 73.3653 160.519 73.202 161.21 73.202C161.807 73.202 162.363 73.342 162.876 73.622C163.389 73.8927 163.781 74.252 164.052 74.7V70.64H165.34V81H164.052V79.558C163.8 80.0153 163.427 80.3933 162.932 80.692C162.437 80.9813 161.859 81.126 161.196 81.126C160.515 81.126 159.894 80.958 159.334 80.622C158.783 80.286 158.349 79.8147 158.032 79.208C157.715 78.6013 157.556 77.9107 157.556 77.136ZM164.052 77.15C164.052 76.5713 163.935 76.0673 163.702 75.638C163.469 75.2087 163.151 74.882 162.75 74.658C162.358 74.4247 161.924 74.308 161.448 74.308C160.972 74.308 160.538 74.42 160.146 74.644C159.754 74.868 159.441 75.1947 159.208 75.624C158.975 76.0533 158.858 76.5573 158.858 77.136C158.858 77.724 158.975 78.2373 159.208 78.676C159.441 79.1053 159.754 79.4367 160.146 79.67C160.538 79.894 160.972 80.006 161.448 80.006C161.924 80.006 162.358 79.894 162.75 79.67C163.151 79.4367 163.469 79.1053 163.702 78.676C163.935 78.2373 164.052 77.7287 164.052 77.15ZM167.857 77.136C167.857 76.352 168.016 75.666 168.333 75.078C168.65 74.4807 169.084 74.0187 169.635 73.692C170.195 73.3653 170.816 73.202 171.497 73.202C172.169 73.202 172.752 73.3467 173.247 73.636C173.742 73.9253 174.11 74.2893 174.353 74.728V73.328H175.641V81H174.353V79.572C174.101 80.02 173.723 80.3933 173.219 80.692C172.724 80.9813 172.146 81.126 171.483 81.126C170.802 81.126 170.186 80.958 169.635 80.622C169.084 80.286 168.65 79.8147 168.333 79.208C168.016 78.6013 167.857 77.9107 167.857 77.136ZM174.353 77.15C174.353 76.5713 174.236 76.0673 174.003 75.638C173.77 75.2087 173.452 74.882 173.051 74.658C172.659 74.4247 172.225 74.308 171.749 74.308C171.273 74.308 170.839 74.42 170.447 74.644C170.055 74.868 169.742 75.1947 169.509 75.624C169.276 76.0533 169.159 76.5573 169.159 77.136C169.159 77.724 169.276 78.2373 169.509 78.676C169.742 79.1053 170.055 79.4367 170.447 79.67C170.839 79.894 171.273 80.006 171.749 80.006C172.225 80.006 172.659 79.894 173.051 79.67C173.452 79.4367 173.77 79.1053 174.003 78.676C174.236 78.2373 174.353 77.7287 174.353 77.15ZM179.292 72.082C179.049 72.082 178.844 71.998 178.676 71.83C178.508 71.662 178.424 71.4567 178.424 71.214C178.424 70.9713 178.508 70.766 178.676 70.598C178.844 70.43 179.049 70.346 179.292 70.346C179.525 70.346 179.721 70.43 179.88 70.598C180.048 70.766 180.132 70.9713 180.132 71.214C180.132 71.4567 180.048 71.662 179.88 71.83C179.721 71.998 179.525 72.082 179.292 72.082ZM179.908 73.328V81H178.634V73.328H179.908ZM184.193 70.64V81H182.919V70.64H184.193ZM193.812 73.328L189.192 84.612H187.876L189.388 80.916L186.294 73.328H187.708L190.116 79.544L192.496 73.328H193.812ZM204.243 73.188C205.177 73.188 205.933 73.4727 206.511 74.042C207.09 74.602 207.379 75.414 207.379 76.478V81H206.119V76.66C206.119 75.8947 205.928 75.3113 205.545 74.91C205.163 74.4993 204.64 74.294 203.977 74.294C203.305 74.294 202.769 74.504 202.367 74.924C201.975 75.344 201.779 75.9553 201.779 76.758V81H200.505V73.328H201.779V74.42C202.031 74.028 202.372 73.7247 202.801 73.51C203.24 73.2953 203.721 73.188 204.243 73.188ZM217.301 76.87C217.301 77.1127 217.287 77.3693 217.259 77.64H211.127C211.173 78.396 211.43 78.9887 211.897 79.418C212.373 79.838 212.947 80.048 213.619 80.048C214.169 80.048 214.627 79.922 214.991 79.67C215.364 79.4087 215.625 79.0633 215.775 78.634H217.147C216.941 79.3713 216.531 79.9733 215.915 80.44C215.299 80.8973 214.533 81.126 213.619 81.126C212.891 81.126 212.237 80.9627 211.659 80.636C211.089 80.3093 210.641 79.8473 210.315 79.25C209.988 78.6433 209.825 77.9433 209.825 77.15C209.825 76.3567 209.983 75.6613 210.301 75.064C210.618 74.4667 211.061 74.0093 211.631 73.692C212.209 73.3653 212.872 73.202 213.619 73.202C214.347 73.202 214.991 73.3607 215.551 73.678C216.111 73.9953 216.54 74.434 216.839 74.994C217.147 75.5447 217.301 76.17 217.301 76.87ZM215.985 76.604C215.985 76.1187 215.877 75.7033 215.663 75.358C215.448 75.0033 215.154 74.7373 214.781 74.56C214.417 74.3733 214.011 74.28 213.563 74.28C212.919 74.28 212.368 74.4853 211.911 74.896C211.463 75.3067 211.206 75.876 211.141 76.604H215.985ZM226.822 76.87C226.822 77.1127 226.808 77.3693 226.78 77.64H220.648C220.695 78.396 220.952 78.9887 221.418 79.418C221.894 79.838 222.468 80.048 223.14 80.048C223.691 80.048 224.148 79.922 224.512 79.67C224.886 79.4087 225.147 79.0633 225.296 78.634H226.668C226.463 79.3713 226.052 79.9733 225.436 80.44C224.82 80.8973 224.055 81.126 223.14 81.126C222.412 81.126 221.759 80.9627 221.18 80.636C220.611 80.3093 220.163 79.8473 219.836 79.25C219.51 78.6433 219.346 77.9433 219.346 77.15C219.346 76.3567 219.505 75.6613 219.822 75.064C220.14 74.4667 220.583 74.0093 221.152 73.692C221.731 73.3653 222.394 73.202 223.14 73.202C223.868 73.202 224.512 73.3607 225.072 73.678C225.632 73.9953 226.062 74.434 226.36 74.994C226.668 75.5447 226.822 76.17 226.822 76.87ZM225.506 76.604C225.506 76.1187 225.399 75.7033 225.184 75.358C224.97 75.0033 224.676 74.7373 224.302 74.56C223.938 74.3733 223.532 74.28 223.084 74.28C222.44 74.28 221.89 74.4853 221.432 74.896C220.984 75.3067 220.728 75.876 220.662 76.604H225.506ZM228.868 77.136C228.868 76.352 229.027 75.666 229.344 75.078C229.661 74.4807 230.095 74.0187 230.646 73.692C231.206 73.3653 231.831 73.202 232.522 73.202C233.119 73.202 233.675 73.342 234.188 73.622C234.701 73.8927 235.093 74.252 235.364 74.7V70.64H236.652V81H235.364V79.558C235.112 80.0153 234.739 80.3933 234.244 80.692C233.749 80.9813 233.171 81.126 232.508 81.126C231.827 81.126 231.206 80.958 230.646 80.622C230.095 80.286 229.661 79.8147 229.344 79.208C229.027 78.6013 228.868 77.9107 228.868 77.136ZM235.364 77.15C235.364 76.5713 235.247 76.0673 235.014 75.638C234.781 75.2087 234.463 74.882 234.062 74.658C233.67 74.4247 233.236 74.308 232.76 74.308C232.284 74.308 231.85 74.42 231.458 74.644C231.066 74.868 230.753 75.1947 230.52 75.624C230.287 76.0533 230.17 76.5573 230.17 77.136C230.17 77.724 230.287 78.2373 230.52 78.676C230.753 79.1053 231.066 79.4367 231.458 79.67C231.85 79.894 232.284 80.006 232.76 80.006C233.236 80.006 233.67 79.894 234.062 79.67C234.463 79.4367 234.781 79.1053 235.014 78.676C235.247 78.2373 235.364 77.7287 235.364 77.15ZM242.361 81.126C241.773 81.126 241.245 81.028 240.779 80.832C240.312 80.6267 239.943 80.3467 239.673 79.992C239.402 79.628 239.253 79.2127 239.225 78.746H240.541C240.578 79.1287 240.755 79.4413 241.073 79.684C241.399 79.9267 241.824 80.048 242.347 80.048C242.832 80.048 243.215 79.9407 243.495 79.726C243.775 79.5113 243.915 79.2407 243.915 78.914C243.915 78.578 243.765 78.3307 243.467 78.172C243.168 78.004 242.706 77.8407 242.081 77.682C241.511 77.5327 241.045 77.3833 240.681 77.234C240.326 77.0753 240.018 76.8467 239.757 76.548C239.505 76.24 239.379 75.8387 239.379 75.344C239.379 74.952 239.495 74.5927 239.729 74.266C239.962 73.9393 240.293 73.6827 240.723 73.496C241.152 73.3 241.642 73.202 242.193 73.202C243.042 73.202 243.728 73.4167 244.251 73.846C244.773 74.2753 245.053 74.8633 245.091 75.61H243.817C243.789 75.2087 243.625 74.8867 243.327 74.644C243.037 74.4013 242.645 74.28 242.151 74.28C241.693 74.28 241.329 74.378 241.059 74.574C240.788 74.77 240.653 75.0267 240.653 75.344C240.653 75.596 240.732 75.806 240.891 75.974C241.059 76.1327 241.264 76.2633 241.507 76.366C241.759 76.4593 242.104 76.5667 242.543 76.688C243.093 76.8373 243.541 76.9867 243.887 77.136C244.232 77.276 244.526 77.4907 244.769 77.78C245.021 78.0693 245.151 78.4473 245.161 78.914C245.161 79.334 245.044 79.712 244.811 80.048C244.577 80.384 244.246 80.65 243.817 80.846C243.397 81.0327 242.911 81.126 242.361 81.126Z" fill="#EFD4D1"/>
<defs>
<clipPath id="clip0_668_447">
<rect width="74.23" height="74.23" fill="white"/>
</clipPath>
</defs>
</svg>
