<svg width="85" height="16" viewBox="0 0 85 16" fill="none" xmlns="http://www.w3.org/2000/svg">
<path d="M33.5 6.3H27.775L26 0.75L24.225 6.3H18.5L23.125 9.725L21.375 15.25L26 11.825L30.625 15.25L28.85 9.7L33.5 6.3Z" fill="#FFCE31"/>
<path d="M50.5 6.3H44.775L43 0.75L41.225 6.3H35.5L40.125 9.725L38.375 15.25L43 11.825L47.625 15.25L45.85 9.7L50.5 6.3Z" fill="#FFCE31"/>
<path d="M67.5 6.3H61.775L60 0.75L58.225 6.3H52.5L57.125 9.725L55.375 15.25L60 11.825L64.625 15.25L62.85 9.7L67.5 6.3Z" fill="#FFCE31"/>
<path d="M84.5 6.3H78.775L77 0.75L75.225 6.3H69.5L74.125 9.725L72.375 15.25L77 11.825L81.625 15.25L79.85 9.7L84.5 6.3Z" fill="#FFCE31"/>
<path d="M15.5 6.3H9.775L8 0.75L6.225 6.3H0.5L5.125 9.725L3.375 15.25L8 11.825L12.625 15.25L10.85 9.7L15.5 6.3Z" fill="#FFCE31"/>
</svg>
