<svg width="39" height="25" viewBox="0 0 39 25" fill="none" xmlns="http://www.w3.org/2000/svg">
<path d="M34.3899 13.3085C34.0381 6.75548 27.9986 1.52178 20.625 1.52178C19.3394 1.52178 18.0958 1.70113 16.9119 2.02331C15.3329 0.8464 13.4113 0.212486 11.4375 0.217436C6.37125 0.217436 2.25 4.31309 2.25 9.34787C2.25 10.7592 2.56959 11.7055 3.06834 12.6205C1.38572 13.9203 0.28125 16.0594 0.28125 18.4783C0.28125 22.257 3.04144 25.0001 6.84375 25.0001H33.75C36.8409 25.0001 39 22.8544 39 19.7827C39 16.8524 37.1737 13.7292 34.3899 13.3085ZM3.5625 9.34787C3.5625 5.03244 7.0951 1.52178 11.4375 1.52178C12.8288 1.52178 14.1563 1.87852 15.3376 2.55222C11.5051 4.107 8.57034 7.30396 7.62403 11.3044H6.84375C5.9217 11.3061 5.01236 11.5183 4.18594 11.9246C3.75413 11.1087 3.5625 10.4031 3.5625 9.34787ZM33.75 23.6957H6.84375C3.75281 23.6957 1.59375 21.55 1.59375 18.4783C1.59375 15.2422 3.94903 12.6087 6.84375 12.6087H8.70094L8.80134 12.0772C9.81525 6.71635 14.7877 2.82613 20.625 2.82613C27.5005 2.82613 33.0938 7.79961 33.0938 13.9131V14.5653H33.75C36.0705 14.5653 37.6875 17.3148 37.6875 19.7827C37.6875 22.1598 36.142 23.6957 33.75 23.6957Z" fill="#3C335E"/>
</svg>
