<svg width="18" height="18" viewBox="0 0 18 18" fill="none" xmlns="http://www.w3.org/2000/svg">
<path d="M17.7043 16.2848L14.3054 12.8958C15.402 11.4988 15.9971 9.77351 15.9948 7.99743C15.9948 6.41569 15.5258 4.86947 14.647 3.5543C13.7683 2.23913 12.5192 1.21408 11.0579 0.608771C9.59657 0.00346513 7.98855 -0.15491 6.43721 0.153672C4.88586 0.462254 3.46085 1.22393 2.34239 2.34239C1.22393 3.46085 0.462254 4.88586 0.153672 6.43721C-0.15491 7.98855 0.00346513 9.59657 0.608771 11.0579C1.21408 12.5192 2.23913 13.7683 3.5543 14.647C4.86947 15.5258 6.41569 15.9948 7.99743 15.9948C9.77351 15.9971 11.4988 15.402 12.8958 14.3054L16.2848 17.7043C16.3777 17.798 16.4883 17.8724 16.6101 17.9231C16.7319 17.9739 16.8626 18 16.9945 18C17.1265 18 17.2572 17.9739 17.379 17.9231C17.5008 17.8724 17.6114 17.798 17.7043 17.7043C17.798 17.6114 17.8724 17.5008 17.9231 17.379C17.9739 17.2572 18 17.1265 18 16.9945C18 16.8626 17.9739 16.7319 17.9231 16.6101C17.8724 16.4883 17.798 16.3777 17.7043 16.2848ZM1.99936 7.99743C1.99936 6.81112 2.35114 5.65146 3.01022 4.66508C3.66929 3.6787 4.60606 2.90991 5.70207 2.45593C6.79807 2.00196 8.00408 1.88317 9.16759 2.11461C10.3311 2.34605 11.3999 2.91731 12.2387 3.75615C13.0775 4.595 13.6488 5.66375 13.8802 6.82726C14.1117 7.99077 13.9929 9.19678 13.5389 10.2928C13.0849 11.3888 12.3162 12.3256 11.3298 12.9846C10.3434 13.6437 9.18373 13.9955 7.99743 13.9955C6.40664 13.9955 4.88101 13.3636 3.75615 12.2387C2.6313 11.1138 1.99936 9.58821 1.99936 7.99743Z" fill="white"/>
</svg>
