<?xml version="1.0" encoding="iso-8859-1"?>
<!-- Generator: Adobe Illustrator 19.0.0, SVG Export Plug-In . SVG Version: 6.00 Build 0)  -->
<svg version="1.1" id="Layer_1" xmlns="http://www.w3.org/2000/svg" xmlns:xlink="http://www.w3.org/1999/xlink" x="0px" y="0px"
	 viewBox="0 0 450.1 450.1" style="enable-background:new 0 0 450.1 450.1;" xml:space="preserve">
<g transform="translate(0 -540.36)">
	<g>
		<g>
			<path d="M272.344,676.46c-9.6,0-18.3,1.1-26.1,3.4c-21.7-40.6-64.3-66.4-111.1-66.4c-69.1,0-125.3,56.5-125.3,125.9
				c0,69,56.2,125.1,125.3,125.1h137.2c52,0,94.2-42.2,94.2-94S324.244,676.46,272.344,676.46z M272.344,844.56h-137.2
				c-58,0-105.3-47.2-105.3-105.1c0-58.4,47.2-105.9,105.3-105.9c42,0,80.1,24.7,96.9,62.9c1.1,2.4,3.1,4.3,5.6,5.3s5.3,0.9,7.7-0.2
				c7.2-3.3,16.5-5,27-5c40.9,0,74.2,33.2,74.2,74S313.244,844.56,272.344,844.56z"/>
			<path d="M351.544,898.36l-37.6,18.8l-37.6-18.8c-2.8-1.4-6.1-1.4-8.9,0l-37.6,18.7l-36.8-18.7c-2.8-1.4-6.2-1.4-9,0l-37.6,18.8
				l-37.6-18.8c-2.8-1.4-6.1-1.4-8.9,0l-37.6,18.8l-37.6-18.8c-4.9-2.5-10.9-0.4-13.4,4.5s-0.4,10.9,4.5,13.4l42.1,21
				c2.8,1.4,6.1,1.4,8.9,0l37.6-18.8l37.6,18.8c2.8,1.4,6.1,1.4,8.9,0l37.6-18.7l36.8,18.7c2.8,1.4,6.2,1.4,9,0l37.6-18.8l37.6,18.8
				c1.4,0.7,3,1.1,4.5,1.1s3.1-0.3,4.3-1.1l42.1-21c5-2.5,7-8.5,4.5-13.4C362.444,897.86,356.444,895.86,351.544,898.36z"/>
			<path d="M351.544,950.46l-37.6,18.8l-37.6-18.8c-2.8-1.4-6.1-1.4-8.9,0l-37.6,18.7l-36.8-18.7c-2.8-1.4-6.2-1.4-9,0l-37.6,18.8
				l-37.6-18.8c-2.8-1.4-6.1-1.4-8.9,0l-37.6,18.8l-37.6-18.8c-4.9-2.5-10.9-0.4-13.4,4.5s-0.4,10.9,4.5,13.4l42.1,21
				c2.8,1.4,6.1,1.4,8.9,0l37.6-18.8l37.6,18.8c2.8,1.4,6.1,1.4,8.9,0l37.6-18.7l36.8,18.7c2.8,1.4,6.2,1.4,9,0l37.6-18.8l37.6,18.8
				c1.4,0.7,3,1.1,4.5,1.1s3.1-0.4,4.3-1.1l42.1-21c5-2.5,7-8.5,4.5-13.4C362.444,949.96,356.444,947.96,351.544,950.46z"/>
			<path d="M434.644,645.66l-13.3-6.6l13.3-6.6c5-2.4,7-8.4,4.6-13.4c-2.4-5-8.4-7-13.4-4.6l-17.2,8.4v-20.5c0-5.5-4.5-10-10-10
				s-10,4.5-10,10v20.5l-17.2-8.4c-5-2.4-10.9-0.4-13.4,4.6c-2.4,5-0.4,10.9,4.6,13.4l13.3,6.6l-13.3,6.6c-5,2.4-7,8.4-4.6,13.4
				c1.7,3.5,5.3,5.6,9,5.6c1.5,0,3-0.3,4.4-1l17.2-8.4v20.5c0,5.5,4.5,10,10,10s10-4.5,10-10v-20.5l17.2,8.4c1.4,0.7,2.9,1,4.4,1
				c3.7,0,7.2-2.1,9-5.6C441.644,654.06,439.644,648.06,434.644,645.66z"/>
			<path d="M247.344,580.36l13.2,6.6l-13.2,6.6c-4.9,2.5-7,8.5-4.5,13.4c1.8,3.5,5.3,5.5,9,5.5c1.5,0,3-0.3,4.5-1.1l16.7-8.3v20.4
				c0,5.5,4.5,10,10,10s10-4.5,10-10v-20.4l16.7,8.3c1.4,0.7,3,1.1,4.5,1.1c3.7,0,7.2-2,9-5.5c2.2-4.9,0.2-10.9-4.7-13.4l-13.2-6.6
				l13.2-6.6c4.9-2.5,7-8.5,4.5-13.4s-8.5-6.9-13.4-4.5l-16.7,8.3v-20.4c0-5.5-4.5-10-10-10s-10,4.5-10,10v20.4l-16.7-8.3
				c-4.9-2.5-10.9-0.5-13.4,4.5C240.344,571.86,242.344,577.86,247.344,580.36z"/>
		</g>
	</g>
</g>
<g>
</g>
<g>
</g>
<g>
</g>
<g>
</g>
<g>
</g>
<g>
</g>
<g>
</g>
<g>
</g>
<g>
</g>
<g>
</g>
<g>
</g>
<g>
</g>
<g>
</g>
<g>
</g>
<g>
</g>
</svg>
